<?xml version="1.0" encoding="utf-8"?>
<!-- Generator: Adobe Illustrator 24.0.0, SVG Export Plug-In . SVG Version: 6.00 Build 0)  -->
<svg version="1.1" id="Layer_1" xmlns="http://www.w3.org/2000/svg" xmlns:xlink="http://www.w3.org/1999/xlink" x="0px" y="0px"
	 viewBox="0 0 1920 1080" style="enable-background:new 0 0 1920 1080;" xml:space="preserve">
<style type="text/css">
	.st0{fill:none;}
	.st1{fill:#FDFDFD;}
	.st2{fill:#F73634;}
	.st3{fill:#F4B937;}
	.st4{fill:#F93F35;}
	.st5{fill:#261C1B;}
	.st6{fill:#291B1A;}
	.st7{fill:#221B1A;}
	.st8{fill:#251918;}
	.st9{fill:#2A1D1C;}
	.st10{fill:#181615;}
	.st11{fill:#2E201E;}
	.st12{fill:#50211C;}
	.st13{fill:#F63936;}
	.st14{fill:#41403F;}
	.st15{fill:none;stroke:#41403F;stroke-width:0;stroke-linecap:round;stroke-linejoin:round;}
	.st16{fill:#F64A47;}
	.st17{fill:none;stroke:#494A49;stroke-width:0;stroke-linecap:round;stroke-linejoin:round;}
	.st18{fill:none;stroke:#2F2322;stroke-width:0;stroke-linecap:round;stroke-linejoin:round;}
	.st19{fill:#F7E5E2;}
	.st20{fill:#F7DFDB;}
	.st21{fill:#5B211D;}
	.st22{fill:#F77C73;}
	.st23{fill:none;stroke:#F63936;stroke-width:0;stroke-linecap:round;stroke-linejoin:round;}
	.st24{fill:#4D1815;}
	.st25{fill:none;stroke:#4D1815;stroke-width:0;stroke-linecap:round;stroke-linejoin:round;}
	.st26{fill:#F73E35;}
	.st27{fill:#F83F35;}
	.st28{fill:#F83E35;}
	.st29{fill:#F63E34;}
	.st30{fill:#F2F2F2;}
	.st31{fill:#2D2322;}
	.st32{fill:#FAFAFA;}
</style>
<g>
	<path class="st0" d="M331.1,667.5c0.2,0.1,0.5,0.3,0.7,0.4c0,0.2,0.1,0.6,0,0.7c0.1-0.2,0-0.5,0-0.7
		C331.6,667.7,331.3,667.6,331.1,667.5z"/>
	<path class="st0" d="M331.1,668.9L331.1,668.9c0-0.5,0-1,0-1.5C331.1,667.9,331.1,668.4,331.1,668.9z"/>
	<path class="st0" d="M337.7,677.4c-0.3-0.3-0.6-0.7-0.9-1C337.1,676.7,337.4,677,337.7,677.4z"/>
	<path class="st0" d="M337.7,672.9c-0.8,0.6-1.7,1.3-2.5,1.8c0,0,0.1,0.1,0.1,0.1c0,0-0.1-0.1-0.1-0.1
		C336,674.2,336.9,673.5,337.7,672.9z"/>
	<path class="st0" d="M333.1,689.2c0.4,0,0.7,0.1,1.1,0.1c0,0.5,0,0.9,0,1.4c0-0.5,0-0.9,0-1.4C333.8,689.3,333.4,689.2,333.1,689.2
		z"/>
	<path class="st0" d="M337.7,672.9c0.3-0.2,0.6-0.4,0.8-0.6C338.3,672.5,338,672.7,337.7,672.9z"/>
	<path class="st0" d="M327,689.3c-7.3,6-14.5,11.9-21.8,17.9c-1.3,1.2-2.7,2.5-4,3.7c1.3-1.2,2.7-2.5,4-3.7
		C312.4,701.2,319.7,695.3,327,689.3c1.7-0.1,3.3-0.2,5-0.3C330.3,689.1,328.6,689.2,327,689.3L327,689.3z"/>
	<path class="st0" d="M237.1,689c-1,2.2-1.9,4.4-2.9,6.7c-5.7,0.4-11.4,0.7-17.3,1.1c5.9-0.4,11.6-0.8,17.3-1.1
		C235.2,693.4,236.1,691.2,237.1,689z"/>
	<path class="st0" d="M237.1,689c0-3.6,0-7.2,0-11.4C237.1,681.8,237.1,685.4,237.1,689c1.8,1.2,3.5,2.4,5.8,4
		C240.6,691.4,238.9,690.2,237.1,689z"/>
	<path class="st0" d="M266.3,698.1c0.5,0.8,1.1,1.7,1.6,2.5c0,3.3,0,6.5,0,9.8c0-3.3,0-6.5,0-9.8h0
		C267.4,699.7,266.9,698.9,266.3,698.1L266.3,698.1z"/>
	<path class="st0" d="M332,689c0.4,0.1,0.7,0.1,1.1,0.2C332.7,689.2,332.3,689.1,332,689C332,689,332,689,332,689z"/>
	<path class="st0" d="M428.9,613c0,2,0.1,4,0.1,6.1h0C428.9,617,428.9,615,428.9,613z"/>
	<path class="st0" d="M268.1,700.4c0.9-0.6,1.7-1.3,2.6-1.9c9.3,2.5,18.6,5,27.9,7.4c-9.3-2.5-18.6-5-27.9-7.4
		C269.9,699.2,269,699.8,268.1,700.4z"/>
	<path class="st0" d="M267.2,638.1c-1.9,5.1-3.7,10.2-5.6,15.3c0,0.1,0,0.1,0,0.2c0-0.1,0-0.1,0-0.2
		C263.5,648.3,265.4,643.2,267.2,638.1z"/>
	<path class="st0" d="M344,490.5c0.5-0.7,1-1.5,1.4-2.3C344.9,489,344.5,489.8,344,490.5C344,490.5,344,490.5,344,490.5z"/>
	<path class="st0" d="M191.6,449.9c-0.1-0.9-0.2-1.8-0.4-2.6C191.4,448.1,191.5,449,191.6,449.9z"/>
	<path class="st0" d="M141.4,636.5c1.2,1.4,2.4,2.7,3.6,4.1c0,0,0,0,0,0C143.8,639.2,142.6,637.8,141.4,636.5z"/>
	<path class="st0" d="M688.7,513.5c3.4,1.4,6.7,2.8,10.1,4.2c0,0,0,0,0,0C695.4,516.3,692.1,514.9,688.7,513.5z"/>
	<path class="st0" d="M267.2,638.1c-0.8-4.9-4.1-10.1-1-15C263.2,628,266.4,633.2,267.2,638.1c1.9,3,3.7,6,5.6,9
		C271,644.1,269.1,641.1,267.2,638.1z"/>
	<path class="st0" d="M145,640.5C145,640.5,145,640.5,145,640.5c-1.5,0.1-3.1,0.2-4.6,0.3C141.9,640.7,143.5,640.6,145,640.5z"/>
	<path class="st0" d="M946.6,712.9c-0.4-0.1-0.7-0.2-1.1-0.4C945.9,712.7,946.2,712.8,946.6,712.9z"/>
	<path class="st0" d="M191.8,454c0,0.4,0.1,0.9,0.2,1.3l0,0C191.9,454.9,191.9,454.5,191.8,454z"/>
	<path class="st0" d="M413.1,663.1C413.1,663.1,413.1,663.1,413.1,663.1c0,0-0.1-0.1-0.3-0.2C413,663,413.1,663.1,413.1,663.1z"/>
	<path class="st0" d="M412.7,662.7C412.7,662.7,412.7,662.7,412.7,662.7C412.7,662.7,412.7,662.7,412.7,662.7z"/>
	<path class="st0" d="M413.1,663.1c1.4-1.6,2.9-3.1,4.3-4.6c0-0.1,0.1-0.3,0.2-0.4c-0.1,0.1-0.1,0.2-0.2,0.4
		C416,660,414.5,661.5,413.1,663.1z"/>
	<path class="st0" d="M140.3,640.7l0.1,0.1c0.8,1.2,1.6,2.4,2.4,3.7c-0.8-1.2-1.6-2.4-2.4-3.7C140.4,640.8,140.3,640.7,140.3,640.7z
		"/>
	<path class="st0" d="M431.1,592.3c7.7-0.9,15.4-1.8,23-2.8l0,0C446.5,590.5,438.8,591.4,431.1,592.3L431.1,592.3z"/>
	<path class="st0" d="M431.3,647.4c6.3-14.1,12.7-28.2,19-42.4c0.7-3,1.5-5.9,2.2-8.9c-0.7,3-1.5,5.9-2.2,8.9
		C444,619.2,437.6,633.3,431.3,647.4z"/>
	<path class="st0" d="M414.3,658.7c-0.6,1.3-1.3,2.5-1.9,3.8c-1.1,0.8-2.2,1.6-3.2,2.4c1.1-0.8,2.2-1.6,3.2-2.4
		C413.1,661.3,413.7,660,414.3,658.7z"/>
	<path class="st0" d="M323.6,648c-0.8-0.5-1.5-1.1-2.2-1.5C322,647,322.8,647.5,323.6,648z"/>
	<path class="st0" d="M320.4,645.8c-0.1-0.1-0.2-0.1-0.2-0.2C320.2,645.6,320.3,645.7,320.4,645.8z"/>
	<path class="st0" d="M328.3,659.1c-0.4-1.8-0.8-3.6-1.3-5.3C327.4,655.6,327.9,657.3,328.3,659.1z"/>
	<path class="st0" d="M325.5,649.3c-0.3-0.2-0.7-0.4-1-0.7C324.8,648.9,325.2,649.1,325.5,649.3z"/>
	<path class="st0" d="M400.1,607.2c-0.1,2.1-0.3,4.1-0.4,6.2h0c0.1,1,0.3,2.1,0.4,3.1c-0.1-1-0.3-2.1-0.4-3.1
		C399.8,611.4,400,609.3,400.1,607.2z"/>
	<path class="st0" d="M397.8,619.1L397.8,619.1c0.8-0.9,1.5-1.7,2.3-2.6c4.4-3,9-5.9,13.2-9.2c-4.2,3.3-8.8,6.1-13.2,9.2
		C399.3,617.4,398.6,618.2,397.8,619.1z"/>
	<path class="st0" d="M397.5,604.6c0.6,0.6,1.1,1.2,1.7,1.8C398.6,605.8,398.1,605.2,397.5,604.6z"/>
	<path class="st0" d="M318.6,644.1c-0.1-0.1-0.2-0.2-0.3-0.4C318.4,643.8,318.5,644,318.6,644.1z"/>
	<path class="st0" d="M291.5,554.8c-4.6,0-9.2,0-13.7,0C282.3,554.8,286.9,554.8,291.5,554.8L291.5,554.8z"/>
	<path class="st0" d="M1920,154.1H0v74.1c640,0,1280,0,1920,0V154.1z"/>
	<path class="st0" d="M197.6,554.8c-2.3,0-4.6,0-6.9,0C193,554.8,195.3,554.8,197.6,554.8L197.6,554.8z"/>
	<path class="st0" d="M297.5,640.4c0,0.1,0.1,0.2,0.1,0.3C297.6,640.6,297.5,640.5,297.5,640.4z"/>
	<path class="st0" d="M334.2,693.4c0-0.9,0-1.8,0-2.7C334.2,691.6,334.2,692.5,334.2,693.4z"/>
	<path class="st0" d="M326.9,669.5c0.6-0.1,1.2-0.2,1.8-0.3C328.1,669.3,327.5,669.4,326.9,669.5z"/>
	<path class="st0" d="M360.6,642.5c-0.2,0.1-0.5,0.2-0.7,0.3C360.1,642.7,360.3,642.6,360.6,642.5c0.7-0.2,1.4-0.4,2.1-0.6
		C362,642.1,361.3,642.3,360.6,642.5z"/>
	<path class="st0" d="M263.4,695.3c-0.3-0.3-0.5-0.6-0.7-0.8C262.9,694.7,263.1,695,263.4,695.3z"/>
	<path class="st0" d="M263.5,695.4c0.6,0.7,1.6,1.5,2.8,2.7c0,0,0,0,0,0C265.1,696.9,264.1,696.1,263.5,695.4z"/>
	<path class="st0" d="M272.2,677.2c-0.5-0.3-1-0.6-1.5-1c0,0,0,0,0,0C271.2,676.5,271.7,676.9,272.2,677.2z"/>
	<path class="st0" d="M266.4,691.6c3-2.4,6-4.8,9-7.3c0,0,0,0,0,0C272.4,686.7,269.4,689.1,266.4,691.6z"/>
	<path class="st0" d="M400.1,607.2c-0.3-0.3-0.6-0.6-0.9-0.9C399.5,606.7,399.8,607,400.1,607.2L400.1,607.2z"/>
	<path class="st0" d="M272.8,647.1L272.8,647.1c1.2,1.1,2.4,2.2,3.5,3.3l0,0C275.2,649.3,274,648.2,272.8,647.1z"/>
	<path class="st0" d="M264.7,676.5c2-0.1,3.9-0.2,5.9-0.3C268.6,676.3,266.7,676.4,264.7,676.5C264.7,676.5,264.7,676.5,264.7,676.5
		z"/>
	<path class="st0" d="M362.9,631.9c1.3,0,2.7,0.1,4,0.1c0.9,0.7,1.8,1.5,2.6,2.2c4.5,0.7,8.9,1.5,13.4,2.2
		c-4.5-0.7-8.9-1.5-13.4-2.2c-0.9-0.7-1.8-1.5-2.6-2.2C365.6,631.9,364.2,631.9,362.9,631.9L362.9,631.9z"/>
	<path class="st0" d="M318.4,685c-4.4-9.9,0.3-13.9,8.5-15.5C318.7,671.1,314,675.1,318.4,685c2.8,1.4,5.6,2.8,8.4,4.2
		C324,687.8,321.2,686.4,318.4,685z"/>
	<path class="st0" d="M298,651.8c-0.8-0.6-2-1.1-3.4-1.6c0,0,0,0,0,0C296,650.7,297.1,651.2,298,651.8z"/>
	<path class="st0" d="M362.5,643c0-0.4,0-0.7,0.2-1.1c0-2,0.1-4.1,0.1-6.1c0,2-0.1,4.1-0.1,6.1C362.6,642.3,362.5,642.6,362.5,643z"
		/>
	<path class="st0" d="M353.5,601.1c-0.6,1.3-1.2,2.5-1.8,3.8c-1.9,2.8-3.8,5.6-5.8,8.4c1.9-2.8,3.8-5.6,5.8-8.4
		C352.4,603.6,352.9,602.3,353.5,601.1z"/>
	<path class="st0" d="M355.6,604.9c-0.7-1.3-1.4-2.6-2-3.8c1.7-4.6,3.3-9.1,5-13.8c-1.7,4.6-3.3,9.2-5,13.8
		C354.2,602.4,354.9,603.6,355.6,604.9z"/>
	<path class="st0" d="M921.3,596.6c0.1,2.3,0.2,4.6,0.3,6.9c0,0.7,0.3,1.3,0.6,1.9c-0.4-0.6-0.6-1.3-0.6-1.9
		C921.5,601.2,921.4,598.9,921.3,596.6z"/>
	<path class="st0" d="M996.4,706.7c0.2,1.8,0.4,3.7,0.5,5.5C996.7,710.3,996.5,708.5,996.4,706.7
		C996.4,706.7,996.4,706.7,996.4,706.7z"/>
	<path class="st0" d="M1127.4,448.2c-1-0.3-2-0.7-2.9-1.1C1125.5,447.5,1126.5,447.9,1127.4,448.2L1127.4,448.2z"/>
	<path class="st0" d="M998.8,609.7c1.4,2.9,2.8,5.9,4.2,8.8C1001.6,615.6,1000.2,612.7,998.8,609.7
		C998.8,609.7,998.8,609.7,998.8,609.7z"/>
	<path class="st0" d="M1126.5,568.2c0.5-1.9,0.7-3.5,0.9-4.6c0-6.4,0-12.8,0-19.2c0,6.4,0,12.8,0,19.2
		C1127.1,565.1,1126.8,566.6,1126.5,568.2z"/>
	<path class="st0" d="M1061.2,610.4c0.2,0.3,0.5,0.6,0.7,0.9c0.3-0.3,0.5-0.6,0.8-1c0,0,0,0,0,0
		C1062.2,610.3,1061.7,610.3,1061.2,610.4z"/>
	<path class="st0" d="M1007.3,608.3C1007.3,608.3,1007.3,608.3,1007.3,608.3c1.1,0.8,2.2,2.2,3.5,2.3c11.9,1.2,23.7,2.3,35.6,2.9
		c1.9,0.1,3.9-1.5,5.9-2.7C1040.1,611.3,1024.8,610.9,1007.3,608.3z"/>
	<path class="st0" d="M1003.1,618.6c1.4-3.4,2.8-6.9,4.2-10.3c0,0,0,0,0,0C1005.9,611.7,1004.5,615.1,1003.1,618.6z"/>
	<path class="st0" d="M984.4,712.5c4.1-0.1,8.3-0.2,12.4-0.3v0C992.7,712.3,988.6,712.4,984.4,712.5z"/>
	<path class="st0" d="M985.9,703.5c-3.3-0.1-6.6-0.2-10-0.3C979.3,703.2,982.6,703.3,985.9,703.5z"/>
	<path class="st0" d="M1127,588.1c-9.1,13.6-28.4,18.3-46.8,20.5c1.5,1.7,3,4.5,4.4,4.4C1103.2,611.8,1119.5,605.3,1127,588.1
		C1127,588.1,1127,588.1,1127,588.1C1127,588.1,1127,588.1,1127,588.1z"/>
	<path class="st0" d="M1118.6,445.1c1.5,0.4,3,0.9,4.4,1.5C1121.5,446,1120.1,445.4,1118.6,445.1z"/>
	<path class="st0" d="M1000.6,444.5c19.2,0,38.4,0,57.5,0C1038.9,444.5,1019.8,444.5,1000.6,444.5z"/>
	<path class="st0" d="M995.1,614.1c-0.1,0.4-0.1,0.8-0.1,1.2C994.9,614.9,995,614.5,995.1,614.1z"/>
	<path class="st0" d="M995.9,611.7c-0.2,0.4-0.3,0.8-0.5,1.2C995.5,612.5,995.7,612.1,995.9,611.7z"/>
	<path class="st0" d="M1693.9,523.8c0.9-3.2,1.6-6.4,2.4-9.6C1695.6,517.5,1694.8,520.7,1693.9,523.8c0,0,0,0.1,0,0.1
		C1693.9,523.9,1693.9,523.9,1693.9,523.8z"/>
	<path class="st0" d="M1759.1,447.8c3-0.3,5.9-0.7,8.9-1C1765,447.1,1762.1,447.5,1759.1,447.8c-19.5,3-35.5,11.1-46.4,25.1
		C1723.7,458.9,1739.6,450.8,1759.1,447.8z"/>
	<path class="st0" d="M938.7,705.9L938.7,705.9c-0.4-5.2-0.9-10.3-1.3-15.5C937.8,695.6,938.3,700.7,938.7,705.9
		c2.3,2,4.5,5.4,6.8,6.6C943.2,711.2,941,707.9,938.7,705.9z"/>
	<path class="st0" d="M1696.9,511.9c0.4-1.6,0.7-3.2,1.1-4.8C1697.6,508.6,1697.3,510.2,1696.9,511.9z"/>
	<path class="st0" d="M0,861.4v118.4h1920V861.4C1280,861.4,640,861.4,0,861.4z"/>
	<path class="st0" d="M1809.5,704c-1.5,0.2-3.1,0.4-4.6,0.6C1806.4,704.4,1808,704.2,1809.5,704c20.2-3.7,35.9-12.5,46.7-26.3
		C1845.4,691.4,1829.7,700.3,1809.5,704z"/>
	<path class="st0" d="M1863.2,666.8c-1.2,2.3-2.5,4.5-3.9,6.6C1860.7,671.3,1862,669.1,1863.2,666.8z"/>
	<path class="st0" d="M1804.9,712c2.9-0.7,5.8-1.4,8.7-2.1c13-1,24.4-5.5,34.6-13c-10.2,7.4-21.6,11.9-34.6,13
		C1810.6,710.6,1807.7,711.3,1804.9,712z"/>
	<path class="st0" d="M1869.7,438.9c0.6,0.1,1.2,0.3,1.8,0.4C1870.9,439.2,1870.3,439,1869.7,438.9z"/>
	<path class="st0" d="M1670.9,453.9c0,40.8,0,81.6,0,122.4c0,40.8,0,81.6,0,122.4c0.1-40.8,0-81.6,0-122.4
		C1670.9,535.5,1671,494.7,1670.9,453.9z"/>
	<path class="st0" d="M1662.4,649.1c0-24.1,0.1-48.2,0.1-72.4c0-19.7-0.1-39.3-0.1-59c0,19.7,0.1,39.3,0.1,59
		C1662.5,600.9,1662.4,625,1662.4,649.1z"/>
	<path class="st0" d="M1882.6,447.8c-0.5-1.6-0.9-3.3-1.4-4.9c-3.2-1-6.5-2.6-9.7-3.5c3.2,0.9,6.5,2.5,9.7,3.5
		C1881.6,444.5,1882.1,446.1,1882.6,447.8z"/>
	<path class="st0" d="M1752.3,441.7c-2.1,0.7-4.2,1.3-6.3,2c-2.9,0.6-5.9,1-8.7,1.9c2.8-0.9,5.8-1.3,8.7-1.9
		C1748.1,443,1750.2,442.4,1752.3,441.7z"/>
	<path class="st0" d="M1686.4,521.8c-0.3,2.2-0.6,4.3-0.9,6.5c-0.3,8-0.7,16.1-1.1,24.1c0.3-8,0.8-16.1,1.1-24.1
		C1685.8,526.1,1686.1,524,1686.4,521.8z"/>
	<path class="st0" d="M997.1,609.3c0.7-1.2,1.4-2.4,1.9-3.6l0,0C998.5,607,997.8,608.1,997.1,609.3z"/>
	<path class="st0" d="M930.8,613.5c2.4,2.5,4.8,5.1,7.3,7.6c-0.2,10-0.4,20-0.6,30c0.2-10,0.4-20,0.6-30
		C935.7,618.6,933.2,616,930.8,613.5z"/>
	<path class="st0" d="M1125.4,438.6c1.1,0.1,2.1,0.2,3,0.4C1127.5,438.8,1126.5,438.6,1125.4,438.6z"/>
	<path class="st0" d="M925.8,609.1c-0.5-0.4-1-0.8-1.4-1.2C924.8,608.3,925.3,608.7,925.8,609.1z"/>
	<path class="st0" d="M923.7,607.3c-0.4-0.4-0.8-0.8-1.1-1.3C922.9,606.4,923.3,606.8,923.7,607.3z"/>
	<path class="st0" d="M932.8,538.2c-2.7,0.9-5.3,1.8-8,2.7c-0.9,1.9-2.4,3.7-3.1,5.6c0.7-1.9,2.2-3.7,3.1-5.6
		C927.4,540,930.1,539.1,932.8,538.2z"/>
	<path class="st0" d="M1125.4,438.6c-0.5,0-1.1-0.1-1.7-0.1c-28.9,0-57.9-0.1-86.8,0c28.9,0,57.9,0,86.8,0
		C1124.3,438.5,1124.9,438.5,1125.4,438.6z"/>
	<path class="st0" d="M1137,549c1.4-32.2,0.4-64.5,0.6-96.8c0-1.1-0.1-2.2-0.2-3.2c0.1,1,0.2,2.1,0.2,3.2
		C1137.4,484.5,1135.6,516.8,1137,549z"/>
	<path class="st1" d="M1920,228.2c-640,0-1280,0-1920,0v633.1c640,0,1280,0,1920,0V228.2z M458.5,563.8c-1.5,8.8-3,17.3-4.4,25.7
		c0,0,0,0,0,0l0,0c0,0,0,0,0,0c-0.5,2.2-1.1,4.5-1.6,6.7c-0.7,3-1.5,5.9-2.2,8.9c-6.3,14.1-12.7,28.2-19,42.4
		c-2.4,3.6-4.8,7.3-7.1,10.9c-19.7,31.4-47.8,54-81.6,69.8c-53,24.7-108,28.3-162.8,7.5C104.4,707.1,60,653,46.7,575.7
		c-0.9-5.4-1.5-10.9-2.2-16.4c-0.1-1.1,0.2-2.2,0.4-4.5c15,0,30,0,45.1,0c2.3,0,4.6,0,6.9,0c19.1,0,38.2,0,57.2,0c2.3,0,4.6,0,6.9,0
		c9.9,0,19.8,0,29.8,0c2.3,0,4.6,0,6.9,0c26.7,0,53.4,0,80.1,0c4.6,0,9.2,0,13.7,0c40.4,0,80.9,0,121.3,0c2.3,0,4.6,0,6.9,0
		c12.7,0,25.4,0,40.4,0C459.6,557.9,459,560.9,458.5,563.8z M44.8,531.9c11.1-12.7,22.2-20,39.9-16.4c18.9,3.9,38.4,5.6,57.7,7.7
		c3.5,0.4,7.2-1.8,10.8-2.8c-3.2-1.8-6.2-4.6-9.6-5.3c-19-4-38.1-7.4-57.1-11.2c-2.5-0.5-4.8-1.5-7.6-2.4
		c5.9-8.6,12.8-11.2,22.7-8.1c14.9,4.5,30.1,7.9,45.2,11.9c6.7,1.8,11.4,1.1,11.2-8.2c-9.5-3.1-19.4-6.2-29.2-9.4
		c0.1-1.1,0.3-2.2,0.4-3.4c8,0,16,0,23.9,0c1.3-1.6,2.6-3.1,3.9-4.7c-2.6-0.6-5.5-0.7-7.7-1.9c-11.8-6.7-23.5-13.6-35.3-20.5
		c-10.8-6.3-10.8-6.3-9.9-21.2c16.5,11.1,32.3,21.6,48,32.1c3.8,2.5,7.3,5.4,11.4,7.3c2.1,1,5.2,0.3,7.8,0.3c-1-2.4-1.2-5.7-3-7.2
		c-12.5-10.2-25.4-20-38.1-30c-2.7-2.1-5-4.7-8-6.2c-16.7-8.5-20.6-22.3-17.7-39c17.1-5.9,28.4-3.2,39.3,9.7
		c13.2,15.7,26,31.7,39.4,47.3c1,1.2,2.4,2,4,2.7c1.5,0.7,3.2,1.4,4.7,2.2c-0.1-0.4-0.1-0.9-0.2-1.3c-0.1-1.3-0.1-2.8-0.2-4.1
		c-0.1-0.9-0.2-1.8-0.4-2.6s-0.5-1.6-1-2.2c-11.9-17.7-24.4-35.1-37-53.1c9.3-3.7,14.5-1.6,18.9,5.9c9.2,15.9,19.2,31.3,28.9,46.9
		c1.5-0.6,3-1.3,4.5-1.9c-2.3-6.1-4.4-12.3-6.8-18.3c-2.7-6.7-5.7-13.3-8.5-20c1-0.5,1.9-0.9,2.9-1.4c4.5,8.2,9.8,16.1,13.3,24.7
		c3.7,9,9.2,13.4,18.4,10.7c-4.5-17.2-8.4-34.7-13.9-51.8c-3.2-9.9-0.6-16.1,9.2-20.9c3.9,21.2,7.6,42.1,11.8,62.9
		c0.6,3.1,4,5.6,6.2,8.4c1-3.1,3-6.4,2.7-9.4c-2.1-21.6-3.6-43.2-7.5-64.5c-1.9-10.3,0.2-16.8,8.7-22.3c3.7-2.4,6.9-5.7,10.2-8.4
		c1.1,0.2,1.9,0.2,2.4,0.5c17.5,9.5,21.7,22.9,17.1,42c-4.3,17.7-4.3,36.4-5.9,54.7c-0.2,2.4,1.6,4.9,2.5,7.4c2-2,5.4-3.8,5.8-6.2
		c3.8-19.1,7-38.3,10.5-57.4c0.4-2.4,1.3-4.8,2-7.3c10.6,4.4,11.8,11.3,8.9,20.7c-5.2,17.1-9.4,34.5-14,51.7c1.2,0.5,2.3,1,3.5,1.5
		c5-8.8,10-17.5,15-26.3c0.7,0.3,1.3,0.5,2,0.8c-1.5,7.5-3.3,15-4.3,22.6c-0.4,3,1.2,6.2,1.9,9.3c2.8-1.9,6.5-3.2,8.2-5.8
		c9.1-14,17.7-28.3,26.5-42.5c5.4-8.7,5.4-8.7,19.1-6.5c-10.3,14.7-20.3,28.8-30.3,42.9c-3,4.3-6.3,8.4-8.7,12.9
		c-1.1,2.1-0.5,5.1-0.7,7.7c2.6-0.8,6-0.9,7.5-2.6c8.2-9.2,15.9-18.8,23.7-28.3c5.2-6.3,11.6-12.1,15.4-19.1
		c9.4-17.4,24.6-15,40.2-13.1c3.1,16.2,1.4,29.1-14.4,39.2c-16.8,10.7-31.7,24.1-47.2,36.6c-2.1,1.7-2.8,5.2-4.2,7.8
		c3.2-0.4,7.1,0.1,9.6-1.5c13.4-8.5,26.4-17.5,39.5-26.3c5.5-3.7,11.2-7.3,17.5-11.5c3.4,9.8,0.8,15.4-7.4,19.8
		c-15,8.1-29.6,16.7-44.1,25.6c-2.1,1.3-3.4,3.8-4.7,6.3c-0.4,0.8-0.9,1.6-1.4,2.3c0.8,0,1.7,0,2.5,0.1c2.6,0.2,5.2,0.4,7.3-0.4
		c23.6-9.1,47.1-18.6,70.7-27.8c3.2-1.3,6.8-1.8,10.2-2.7c0.5,1.2,1,2.5,1.5,3.7c-28.8,12.6-57.7,25.2-86.5,37.8
		c0.5,1.5,1,3,1.5,4.5c3-0.2,6.1,0,9-0.8c14.8-3.6,29.6-7,44.1-11.4c9.8-3,16.9-1.3,23.3,8.7c-18.7,3.6-36.7,7.2-54.8,10.6
		c-4.9,0.9-9.9,1.3-14.6,2.7c-1.9,0.6-3.2,3.2-4.8,4.9c2,1.1,4.2,3.2,6.1,3.1c13.3-1.3,26.5-3.1,39.7-4.7c6.4-0.8,12.9-1.5,19.3-2.4
		c24.3-3.5,24.4-3.5,43.2,15.4C322.9,531.9,184.7,531.9,44.8,531.9z M668.7,541.4c-0.4,0-0.7,0-1.1,0c0,28.3,2,56.8-0.4,84.9
		c-5.5,64.1-41.6,89.7-104.5,86.7c-3.7-0.2-9.8-6.5-10-10.2c-1-18.7-0.9-37.5-0.1-56.2c0.1-3.2,4.9-7.7,8.6-8.9
		c4.8-1.6,10.5-0.5,15.9-0.6c15.1-0.4,23.4-6.7,23.8-21.2c0.9-31.6,0.7-63.2,0.4-94.8c0-2.2-4.9-5.9-7.8-6.1
		c-9.5-0.8-19.1-0.3-28.6-0.3c-8.8,0-13.1-3.4-12.8-12.7c0.5-16.9,0.5-33.8,0-50.7c-0.3-9.2,4.5-12.8,13-12.9
		c30.1-0.2,60.3,0,90.4-0.1c9.7,0,13.4,4.6,13.3,13.7C668.5,481.8,668.7,511.6,668.7,541.4z M898.5,629.6c0,2.6,3.9,6.8,6.6,7.3
		c6.8,1.4,9.7,4.4,9.6,11.2c-0.3,17.6,0.4,35.3-0.4,52.9c-0.2,4.1-3.9,10.4-7.5,11.6c-24.9,8.4-63.5-9.5-70.2-33.6
		c-4-14.6-4.6-30.4-5.3-45.6c-0.9-19.8-0.2-19.8-20.7-19.8c-11.8,0-23.7,0.3-35.5-0.1c-7.5-0.3-9.8,2.2-9.9,9.4
		c-0.2,15.4-0.2,30.9-2.8,46c-4.9,28.3-25.4,44-55,44.4c-25.8,0.4-25.7,0.4-25.7-24.9c0-11,0.4-22.1-0.1-33.1
		c-0.5-11.3,1.2-20.3,17.2-18.6c0-30.4,0-60.1,0-89.6c0-9.8,0-19.6,0-29.5c-3.4-1.4-6.7-2.8-10.1-4.2c-2.3-3.2-6.6-6.3-6.7-9.5
		c-0.7-18-0.4-36-0.3-54c0-9.3,6.2-11.7,14.4-11.6c18.3,0.1,36.6,0,54.9,0c4.1,0,8.3,0,11.6,0c1.2-1.6,2-2.2,2-2.7
		c1.1-16.4,1.1-16.4,18.5-16.5c11.8,0,23.7,0.3,35.5-0.1c8.6-0.2,13.3,3.4,12.9,11.5c-0.3,6.8,3.1,7.9,9,7.8
		c19.5-0.2,38.9-0.2,58.4,0c12.8,0.1,15.5,2.7,15.6,14.7c0.1,16.2-0.2,32.3,0.1,48.5c0.2,7.3-1.7,11.7-10,13.3
		c-2.6,0.5-6.2,5-6.2,7.8C898.1,558.3,898.1,594,898.5,629.6z M1084.6,613c-1.4,0.1-2.9-2.7-4.4-4.4c-6,0.7-12,1.2-17.5,1.6
		c-0.3,0.3-0.5,0.6-0.8,1c-0.2-0.3-0.5-0.6-0.7-0.9c-2.8,0.2-5.8,0.4-9,0.5c-2,1.2-4,2.8-5.9,2.7c-11.9-0.6-23.8-1.8-35.6-2.9
		c-1.2-0.1-2.3-1.5-3.5-2.3c0,0,0,0,0,0c-1.4,3.4-2.8,6.9-4.2,10.3c0.2,27.8,0.6,55.7,0.2,83.5c0,3.4-4.1,6.7-6.4,10.1
		c-4.1,0.1-8.3,0.2-12.4,0.3c-12.4,0.3-24.9,0.7-37.3,0.4c-0.2,0-0.4,0-0.5-0.1c-0.4-0.1-0.7-0.2-1.1-0.4c-2.3-1.2-4.5-4.6-6.8-6.6
		c-0.4-5.2-0.9-10.3-1.3-15.5c-0.2-3.1-0.4-6.2-0.3-9.3c0-10,0.2-20,0.4-30c0.2-10,0.4-20,0.6-30c-2.4-2.5-4.8-5.1-7.3-7.6
		c-1.4-1.5-3.3-2.9-5-4.3c-0.5-0.4-1-0.8-1.4-1.2c-0.2-0.2-0.4-0.4-0.6-0.6c-0.4-0.4-0.8-0.8-1.1-1.3c-0.2-0.2-0.3-0.4-0.4-0.6
		c-0.4-0.6-0.6-1.3-0.6-1.9c-0.1-2.3-0.2-4.6-0.3-6.9c-0.5-16-0.2-32.1,0-48.2c0-0.6,0.2-1.2,0.4-1.9c0.7-1.9,2.2-3.7,3.1-5.6
		c2.7-0.9,5.3-1.8,8-2.7c1.8-2.7,3.5-5.3,5.3-8c0.1-27.6,0.3-55.2,0.4-82.7c-0.1-7.8,5.8-8.9,11.7-8.9c28.9-0.1,57.9-0.1,86.8-0.1
		s57.9,0,86.8,0c0.6,0,1.1,0,1.7,0.1c1.1,0.1,2.1,0.2,3,0.4c1.9,0.4,3.5,1.1,4.8,2.1c0.6,0.5,1.2,1.1,1.7,1.7
		c1.3,1.6,2.1,3.6,2.4,6.2c0.1,1,0.2,2.1,0.2,3.2c-0.2,32.3,0.9,64.6-0.6,96.8c0.2,3.8,0.7,13.1-2.9,24.4c0,0-2.7,8.2-7,14.7
		c0,0,0,0,0,0C1119.5,605.3,1103.2,611.8,1084.6,613z M1213.3,647.3c-0.4,21.1-3.9,42.9-24.8,56.4c-15,9.7-32.2,10.9-49.4,9.2
		c-3.3-0.3-8.6-5.9-8.7-9.3c-0.8-19-1.2-38.2,0.1-57.2c0.3-4.4,7.6-8.3,11.7-12.4c1.5,0.5,3,0.9,4.4,1.4c0-4,0-7.9,0-11.9
		c0-56.6,0-113.1,0-169.7c0-13.5,2-15.4,15.7-15.5c11.8-0.1,23.6-0.2,35.4,0c12.2,0.2,15.9,3.6,15.9,15
		C1213.8,518,1214.5,582.7,1213.3,647.3z M1458.3,655.6c-0.6,15-0.3,30.1-0.1,45.2c0.1,8.6-3.7,12.5-13.1,12.7
		c-16.7,0.3-33-1.1-46.9-10.8c-18.1-12.8-22.2-32-22.5-51.9c-0.6-40.4-0.2-80.9-0.2-121.3c0-3.9,0-7.9,0-11.6
		c-27.3-5-63.6,15-73.9,42.1c-5.3,13.8-8,29.2-8.6,44c-1.3,31.6-0.4,63.2-0.4,94.8c0,12.6-2.1,14.6-15.4,14.6
		c-12.6,0.1-25.2-0.2-37.8,0.1c-9.2,0.3-13.4-3.9-13.4-12.4c0-8.8,0-17.6,0-26.5c0-73.1,0-146.3,0-219.4c0-14.5,2.2-16.7,17-16.8
		c10.7-0.1,21.4,0,32,0c15.5,0.1,17,1.5,17.6,16c0.1,1.7,0.5,3.5,0.6,4.1c18.4-5.6,36-13.6,54.4-15.8c27.8-3.4,56.2-3.3,84.3-3.8
		c8.1-0.2,11,5.8,10.9,13.8c-0.3,59.2-0.2,118.4-0.2,177.5c0,1.8,0,3.6,0,6.2C1457.8,635.6,1458.7,644.6,1458.3,655.6z
		 M1670.9,698.7c0,12.8-1.9,14.6-15.3,14.6c-56.1,0-112.2,0-168.2,0c-12.9,0-15.3-2.2-15.3-14.8c-0.1-82,0.1-163.9-0.2-245.9
		c0-10.6,4.6-14.3,15.1-14.3c56.1,0.2,112.2,0,168.2,0.1c13.8,0,15.7,2,15.7,15.5c0,40.8,0,81.6,0,122.4
		C1670.9,617.1,1671,657.9,1670.9,698.7z M1852.4,693.6c-1.4,1.2-2.8,2.3-4.3,3.4c-10.2,7.4-21.6,11.9-34.6,13
		c-2.9,0.7-5.8,1.4-8.7,2.1c-16.3,0.5-32.6,1.1-48.9,1.3c-19.4,0.2-38.8-0.1-58.3,0.1c-9.6,0.1-14-4.2-13.9-13.3
		c0.1-16.5,0.3-33-0.1-49.5c-0.2-10,4.4-13.6,14.5-13.5c31.6,0.3,63.2,0.2,94.8,0c15-0.1,21.9-7.4,21.9-23c-3.6-0.2-7.3-0.5-11-0.5
		c-27.4-0.1-54.8,0.1-82.3-0.1c-43.8-0.3-37.7,5.1-37.8-37.1c0-8,0.2-16.1,0.6-24.1c0.3-8,0.8-16.1,1.1-24.1
		c0.3-2.2,0.6-4.3,0.9-6.5c2.8-38.3,22.7-66.7,50.9-76.2c2.8-0.9,5.8-1.3,8.7-1.9c2.1-0.7,4.2-1.3,6.3-2c3.1-0.4,6.2-0.9,9.2-1.3
		c1.5-0.2,3-0.3,4.5-0.5c13.6-0.5,27.1-1.3,40.7-1.4c20.1-0.2,40.2-0.3,60.3,0.1c0.9,0,1.8,0.1,2.7,0.3c0.6,0.1,1.2,0.3,1.8,0.4
		c3.2,0.9,6.5,2.5,9.7,3.5c0.5,1.6,0.9,3.3,1.4,4.9c0.1,0.4,0.2,0.7,0.3,1.1c0.1,9.2,0.3,18.3,0.4,27.5s0.2,18.3,0.3,27.5
		c0.1,9.7-6.6,10.9-14.6,10.9c-30.8-0.1-61.7-0.2-92.5,0.1c-16.8,0.2-23.4,6.6-23.7,22.9c4.1,0,8.1,0,12.2,0
		c33.9,0,67.8-0.1,101.7,0c15,0.1,17.1,2.1,17.1,16.7c0,21.3,1.5,42.7-0.8,63.8C1879.8,645.6,1876.1,673.5,1852.4,693.6z"/>
	<polygon class="st2" points="276.4,650.4 276.4,650.4 276.4,650.4 	"/>
	<polygon class="st2" points="397.8,619.1 397.8,619.1 397.8,619.1 	"/>
	<path class="st2" d="M415.7,558.7c-1-1.3-1.9-2.6-2.9-3.9c-40.4,0-80.9,0-121.3,0h0c-2.5,2.9-5,5.7-7.4,8.6
		c-2.1-2.9-4.2-5.7-6.3-8.6c-26.7,0-53.4,0-80.1,0h0c-1,1.9-2,3.8-3,5.7c-1.3-1.9-2.6-3.8-3.9-5.7c-9.9,0-19.8,0-29.8,0
		c-1.3,1.3-2.6,2.6-4,3.9c-1-1.3-1.9-2.6-2.9-3.9c-19.1,0-38.2,0-57.2,0c-1.3,1.9-2.6,3.8-3.9,5.7c-1-1.9-2-3.8-3-5.7
		c-15.1,0-30.1,0-45.1,0c-0.2,2.3-0.5,3.4-0.4,4.5c0.7,5.5,1.3,10.9,2.2,16.4C60,653,104.4,707.1,179.8,735.7
		c54.7,20.8,109.8,17.2,162.8-7.5c33.9-15.8,61.9-38.4,81.6-69.8c-1.9-0.3-3.8-0.5-5.7-0.8c-0.4,0-0.8,0.2-1,0.5
		c-0.1,0.1-0.1,0.2-0.2,0.4c-1.4,1.5-2.9,3.1-4.3,4.6c0,0,0,0,0,0c0,0,0,0,0,0c-0.8,1.1-1.6,2.1-2.5,3.2c-0.5-0.4-0.9-0.9-1.4-1.3
		c1.1-0.8,2.2-1.6,3.2-2.4c0.6-1.3,1.3-2.5,1.9-3.8c4.9-13.2,9.8-26.5,14.6-39.7c0-2-0.1-4-0.1-6.1c-12,4.1-21,11.5-28.7,21.3
		c-8.6,11-18.3,21.1-27.6,31.6c-0.5,3-1,6-1.5,8.7c1.6,1.8,3.6,3.9,5.5,6.1c-2.7,1.5-5.2,3.3-8,4.5c-2,0.8-4.5,1.4-6.6,1.2
		c-10.1-1.1-12.9,3.8-13.3,12.6c-0.4,9.5-5.7,13-11.3,8.5c-1.8-1.5-2.5-4.8-2.9-7.3c-0.3-2.2-0.4-4.5-0.3-6.7c0-0.9,0-1.8,0-2.7
		c0-0.5,0-0.9,0-1.4c-0.4,0-0.7-0.1-1.1-0.1s-0.7-0.1-1.1-0.2c-1.7,0.1-3.3,0.2-5,0.3c-7.3,6-14.5,11.9-21.8,17.9
		c-1.3,1.2-2.7,2.5-4,3.7c-0.8-1.7-1.7-3.3-2.5-5c-9.3-2.5-18.6-5-27.9-7.4c-0.9,0.6-1.7,1.3-2.6,1.9c0,0-0.1,0.1-0.1,0.1l0,0h0
		c0,3.3,0,6.5,0,9.8c-4.1-1.2-8.2-2.5-13-3.9c-1.1,1.8-2.8,4.4-6.4,10c-0.6-0.7-1.2-1.4-1.8-2c-4.1-4.7-7.6-8.7-11.1-12.7
		c-7.9,2-15.7,4.1-24.8,6.4c0-5,0-8,0-11c2-0.1,4-0.3,6-0.4c5.9-0.4,11.6-0.8,17.3-1.1c1-2.2,1.9-4.4,2.9-6.7c0-3.6,0-7.2,0-11.4
		c0-1.4,0-2.8,0-4.3c4.8,2.3,7,3.4,11.4,5.5c-1.1-5.9-1.9-9.9-2.9-15.2c5,0,9.9,0,14.9,0c0.4-3.4,0.8-6.7,1.2-10.1
		c0-0.1,0-0.1,0-0.2c1.9-5.1,3.7-10.2,5.6-15.3c-0.8-4.9-4.1-10.1-1-15c0.9-1.4,2.2-2.7,4.3-4c1.9,4.5,3.7,8.5,5.8,13.5
		c1.8-2.8,2.7-5.5,4.6-6.8c1.7-1.2,6-1.8,6.5-1.1c2.7,4.1,3.5,10.3,7.1,12.7c1.2,0.8,2,1.6,2.5,2.3c0.2,0.2,0.3,0.4,0.4,0.7
		c0,0.1,0.1,0.2,0.1,0.3c1.3,3.5-3.5,6.3-3,9.5c1.4,0.5,2.5,1.1,3.4,1.6c3,2,2.5,4.4-2.1,8.8c-1.1,1-2.4,2.2-4,3.5
		c1.2-5.9,1.9-9.8,2.7-13.7c-6.1,0-12.1,0-18.2,0.1c-1.9,8.6-3.8,17.2-5.7,25.8c0.5,0.3,1,0.6,1.5,1c0.7,0.5,1.5,0.9,2.2,1.4
		c1.9,1.7,3.8,3.5,5.7,5.2c4.4,2.6,9.1,7.6,13.2,7.2c8.4-0.8,19.4,5.7,25.1-6c-4.4-9.9,0.3-13.8,8.5-15.5c0.6-0.1,1.2-0.2,1.8-0.3
		c0.6-0.1,1.3-0.2,1.9-0.3c-0.8-3.4-1.6-6.6-2.3-9.8c-0.4-1.8-0.8-3.6-1.3-5.3c-0.3-1.4-0.7-2.8-1-4.1c-0.2-0.1-0.3-0.2-0.5-0.3
		c-0.3-0.2-0.7-0.4-1-0.7c-0.3-0.2-0.6-0.4-0.9-0.6c-0.8-0.5-1.5-1.1-2.2-1.5c-0.4-0.3-0.7-0.5-1-0.7c-0.1-0.1-0.2-0.1-0.2-0.2
		c-0.7-0.5-1.2-1-1.6-1.5c-0.1-0.1-0.2-0.2-0.3-0.4c-0.4-0.5-0.6-1-0.7-1.5c-0.1-0.4,0-0.8,0.1-1.3c0.1-0.3,0.2-0.6,0.4-0.9
		c1-1.9,3.6-4.3,7.7-8.1c0.6-6.5,9-13.8-2-19.1c28.6-31,28.6-31,36.4-30.1c-0.6,1.6-1.1,3.1-1.7,4.7c-1.7,4.6-3.3,9.2-5,13.8
		c0.7,1.3,1.4,2.6,2,3.8c3.8,9,7.6,18,11.4,27c0.9,0.7,1.8,1.5,2.6,2.2c4.5,0.7,8.9,1.5,13.4,2.2c3.1-3.7,6.1-7.3,9.2-11
		c0.8-0.7,1.7-1.4,2.5-2.2c1-1.4,2.1-2.7,3.1-4.1c-1.9-2.1-3.8-4.3-5.7-6.4c-0.8-0.3-1.7-0.5-2.7-0.7c-2.8-0.6-5.8-1.2-6.6-2.8
		c-1.2-2.5,0.5-6.8,2.1-9.7c0.5-0.8,5.5-0.1,7.8,1.2c1.8,1,3.2,2.4,4.7,3.9c0.6,0.6,1.1,1.2,1.7,1.8c0.3,0.3,0.6,0.6,0.9,0.9
		c0.8,0.1,1.2-0.2,1.3-1c3.1-2.5,6.2-4.9,9.3-7.4c3.9-7.1,6.7-10.4,10.5-10.5c1.2,0,2.5,0.2,4,0.8c0.2,0.1,0.5,0.2,0.8,0.3
		c0.5,0.2,1,0.5,1.6,0.8s1.1,0.6,1.7,1c0.6,0.3,1.2,0.7,1.9,1.1c7.7-0.9,15.4-1.8,23-2.8c0,0,0,0,0,0c1.4-8.4,2.9-16.9,4.4-25.7
		c0.5-2.9,1-5.9,1.5-9c-15,0-27.7,0-40.4,0C418.3,556.1,417,557.4,415.7,558.7z M145,640.5C145,640.5,145,640.5,145,640.5
		C145,640.5,145,640.5,145,640.5C145,640.5,145,640.5,145,640.5c-0.7,1.3-1.5,2.6-2.2,3.9c-0.8-1.2-1.6-2.4-2.4-3.7l-0.1-0.1
		c-11.4,0-17.1-6.9-23-19.2c1.5,0.7,2.9,1.3,4.2,1.9c5.7,2.6,9.8,4.5,14,6.4c2,2.2,3.9,4.4,5.9,6.6
		C142.6,637.8,143.8,639.2,145,640.5C145,640.5,145,640.5,145,640.5C145,640.5,145,640.5,145,640.5z M182.1,704.9
		c-2.6-0.1-6.1,0.8-7.7-0.5c-6.2-4.9-11.8-10.5-17.7-15.8c0.7-1,1.5-2,2.2-3c7.6,4.8,15.2,9.5,22.6,14.5
		C182.5,700.7,182,703.2,182.1,704.9z M237.5,626.2c-0.7,0-1.4,0-2.1,0c0-2.1,0-4.2,0-6.4c0.7,0,1.4,0,2.1,0
		C237.5,622,237.5,624.1,237.5,626.2z M304.8,674.8c-3.6,1.6-7.4,3-11.1,4.4c-0.6-1.7-1.3-3.3-1.9-5c3.8-1.3,7.5-2.7,11.3-3.8
		C303.2,670.4,304.9,674.7,304.8,674.8z M403.8,580.6c-1.7-0.5-3-2.3-5.2-4.1c2.2-1.5,4.4-3.4,4.8-3.1c1.7,1.3,3,3.2,4.4,4.9
		C406.5,579.1,404.8,580.9,403.8,580.6z"/>
	<path class="st3" d="M418.6,516.4c-6.4,0.9-12.8,1.6-19.3,2.4c-13.2,1.6-26.4,3.4-39.7,4.7c-1.9,0.2-4.1-2-6.1-3.1
		c1.6-1.7,2.9-4.3,4.8-4.9c4.7-1.4,9.7-1.8,14.6-2.7c18-3.5,36-7,54.8-10.6c-6.4-9.9-13.5-11.6-23.3-8.7
		c-14.5,4.4-29.4,7.8-44.1,11.4c-2.9,0.7-6,0.5-9,0.8c-0.5-1.5-1-3-1.5-4.5c28.8-12.6,57.7-25.2,86.5-37.8c-0.5-1.2-1-2.5-1.5-3.7
		c-3.4,0.9-7,1.4-10.2,2.7c-23.6,9.2-47.1,18.7-70.7,27.8c-2.2,0.8-4.8,0.6-7.3,0.4c-0.9-0.1-1.7-0.1-2.5-0.1c0,0,0,0,0,0
		c0.5-0.7,1-1.5,1.4-2.3c1.3-2.4,2.6-5,4.7-6.3c14.5-8.9,29.1-17.5,44.1-25.6c8.2-4.4,10.8-10.1,7.4-19.8
		c-6.3,4.1-11.9,7.8-17.5,11.5c-13.2,8.8-26.1,17.8-39.5,26.3c-2.5,1.6-6.4,1-9.6,1.5c1.3-2.7,2-6.1,4.2-7.8
		c15.5-12.5,30.4-25.9,47.2-36.6c15.9-10.1,17.6-23,14.4-39.2c-15.6-1.9-30.8-4.3-40.2,13.1c-3.8,7-10.2,12.8-15.4,19.1
		c-7.9,9.5-15.6,19.1-23.7,28.3c-1.5,1.7-5,1.8-7.5,2.6c0.2-2.6-0.4-5.6,0.7-7.7c2.4-4.5,5.7-8.7,8.7-12.9
		c9.9-14.1,19.9-28.2,30.3-42.9c-13.7-2.2-13.7-2.2-19.1,6.5c-8.8,14.2-17.4,28.5-26.5,42.5c-1.7,2.6-5.4,3.9-8.2,5.8
		c-0.7-3.1-2.2-6.3-1.9-9.3c1-7.6,2.8-15.1,4.3-22.6c-0.7-0.3-1.3-0.5-2-0.8c-5,8.8-10,17.5-15,26.3c-1.2-0.5-2.3-1-3.5-1.5
		c4.6-17.3,8.8-34.6,14-51.7c2.8-9.4,1.7-16.3-8.9-20.7c-0.7,2.5-1.6,4.9-2,7.3c-3.5,19.1-6.7,38.3-10.5,57.4
		c-0.5,2.3-3.8,4.1-5.8,6.2c-0.9-2.5-2.7-5-2.5-7.4c1.6-18.3,1.7-37,5.9-54.7c4.6-19,0.4-32.4-17.1-42c-0.6-0.3-1.4-0.3-2.4-0.5
		c-3.3,2.8-6.5,6-10.2,8.4c-8.5,5.6-10.6,12-8.7,22.3c3.9,21.3,5.4,43,7.5,64.5c0.3,3-1.7,6.3-2.7,9.4c-2.1-2.8-5.5-5.3-6.2-8.4
		c-4.2-20.8-7.9-41.7-11.8-62.9c-9.8,4.8-12.3,11-9.2,20.9c5.4,17,9.3,34.5,13.9,51.8c-9.2,2.7-14.7-1.7-18.4-10.7
		c-3.5-8.6-8.8-16.5-13.3-24.7c-1,0.5-1.9,0.9-2.9,1.4c2.8,6.7,5.8,13.3,8.5,20c2.4,6,4.5,12.2,6.8,18.3c-1.5,0.6-3,1.3-4.5,1.9
		c-9.7-15.6-19.7-31.1-28.9-46.9c-4.3-7.5-9.6-9.5-18.9-5.9c12.6,18,25,35.4,37,53.1c0.4,0.7,0.7,1.4,1,2.2s0.3,1.7,0.4,2.6
		c0.1,1.4,0.1,2.8,0.2,4.1c0,0.4,0.1,0.9,0.2,1.3l0,0c-1.5-0.8-3.1-1.5-4.7-2.2c-1.5-0.7-3-1.6-4-2.7
		c-13.3-15.6-26.2-31.5-39.4-47.3c-10.8-12.9-22.2-15.6-39.3-9.7c-2.9,16.7,1,30.5,17.7,39c3,1.5,5.3,4.1,8,6.2
		c12.7,10,25.6,19.8,38.1,30c1.8,1.5,2,4.7,3,7.2c-2.6-0.1-5.6,0.7-7.8-0.3c-4.1-1.9-7.6-4.8-11.4-7.3c-15.7-10.5-31.5-21-48-32.1
		c-0.9,14.9-0.9,14.9,9.9,21.2c11.7,6.9,23.4,13.8,35.3,20.5c2.2,1.2,5.1,1.3,7.7,1.9c-1.3,1.6-2.6,3.1-3.9,4.7c-8,0-16,0-23.9,0
		c-0.1,1.1-0.3,2.2-0.4,3.4c9.8,3.2,19.7,6.3,29.2,9.4c0.2,9.3-4.5,10-11.2,8.2c-15.1-4-30.3-7.4-45.2-11.9c-10-3-16.8-0.5-22.7,8.1
		c2.7,0.9,5.1,1.9,7.6,2.4c19,3.7,38.1,7.2,57.1,11.2c3.4,0.7,6.4,3.5,9.6,5.3c-3.6,1-7.4,3.2-10.8,2.8c-19.3-2.1-38.8-3.8-57.7-7.7
		c-17.7-3.7-28.8,3.7-39.9,16.4c139.9,0,278,0,417,0C443,513,442.9,513,418.6,516.4z M242.6,480c14.4-12.7,25.4-6.4,39.3,0
		C267.8,480,256.5,480,242.6,480z"/>
	<path class="st4" d="M985.9,703.5c7.3,0.3,9-2.9,8.9-9.2c-0.2-26.3-0.2-52.7,0.1-79c0-0.4,0.1-0.8,0.1-1.2c0.1-0.4,0.2-0.8,0.3-1.2
		c0.1-0.4,0.3-0.8,0.5-1.2c0.4-0.8,0.8-1.6,1.3-2.4c0.7-1.2,1.4-2.4,1.9-3.6h0l0,0l0,0c24.9,0.4,46.5-0.2,64-1
		c25.8-1.2,39.8-2.9,49-12c10.9-10.8,14.4-24.5,14.4-24.5c0,0,0,0,0-0.1c0.3-1.5,0.6-3.1,0.9-4.6c0-6.4,0-12.8,0-19.2
		c0-32.1,0-64.1,0-96.1c0,0,0,0,0,0l0,0c0,0,0,0,0,0c-55.5,0-111,0-166.6,0.1c-4.9,0-9.9,0.3-14.8,0.5c0,31.9,0,63.8,0,96.3
		c-5.4,0.6-9.8,1.1-15.3,1.7c0,18.8,0,37.6,0,57.6c4.2,0.5,8.9,1,15.3,1.8c0,32.3,0,64.5,0,96.7c10,0.1,19.9,0,29.9,0.2
		C979.3,703.2,982.6,703.3,985.9,703.5z M1127.4,563.6c-0.3,1.6-0.6,3.1-0.9,4.7C1126.8,566.7,1127.1,565.1,1127.4,563.6z M1026,506
		c14.5,0,28.9,0.3,43.4-0.1c7.6-0.2,9.6,2.6,9.8,9.6c0.6,30.8,0.8,30.7-31,30.7c-3.8,0-7.6,0-11.4,0c-11,0-22.1-0.2-33.1,0.1
		c-6.4,0.2-8.5-2.1-8.8-8.2C993.3,506,993.1,506,1026,506z"/>
	<polygon class="st4" points="1007.3,608.3 1007.3,608.3 1007.3,608.3 1007.3,608.3 1007.3,608.3 1007.3,608.3 	"/>
	<path class="st5" d="M1442.6,636.4c0-2.7,0-4.5,0-6.2c0-59.2-0.1-118.4,0.2-177.5c0-7.9-2.8-13.9-10.9-13.8
		c-28.1,0.5-56.5,0.4-84.3,3.8c-18.4,2.3-36,10.3-54.4,15.8c-0.1-0.7-0.5-2.4-0.6-4.1c-0.6-14.5-2.1-15.9-17.6-16
		c-10.7,0-21.4-0.1-32,0c-14.8,0.1-17,2.2-17,16.8c0,73.1,0,146.3,0,219.4c0,8.8,0,17.6,0,26.5c0,8.6,4.2,12.7,13.4,12.4
		c12.6-0.3,25.2,0,37.8-0.1c13.3-0.1,15.4-2.1,15.4-14.6c0.1-31.6-0.9-63.3,0.4-94.8c0.6-14.8,3.3-30.1,8.6-44
		c10.3-27.1,46.6-47.1,73.9-42.1c0,3.7,0,7.7,0,11.6c0,40.4-0.3,80.9,0.2,121.3c0.3,19.9,4.3,39.2,22.5,51.9
		c13.9,9.7,30.1,11.1,46.9,10.8c9.3-0.2,13.1-4,13.1-12.7c-0.1-15.1-0.5-30.2,0.1-45.2C1458.7,644.6,1457.8,635.6,1442.6,636.4z
		 M1449.5,696.8c-0.1,2.7-4.9,7.1-7.9,7.4c-36.2,3.1-56.8-15.4-57.4-52.4c-0.7-44.1-0.2-88.2-0.3-132.3c0-3.9,0-7.9,0-11.5
		c-43.4-6.6-87,23.6-96.6,66.5c-2.7,12.1-3.4,24.8-3.7,37.2c-0.6,29.4-0.2,58.8-0.3,88.2c0,1-0.6,2.1-1.2,3.9c-15,0-30,0-46.5,0
		c-0.2-3.2-0.7-6.7-0.7-10.2c0-78.3,0.1-156.6-0.2-234.9c0-9.2,2.7-12.3,12.3-11.7c11.7,0.7,23.4,0.2,36.6,0.2c0,10.4,0,19.3,0,28
		c2.2,0.4,3.2,0.8,3.6,0.5c35.2-25.9,76.1-29.6,118.4-28.6c27.7,0.6,27.8,0.1,27.8,26.5c0,53.7,0.1,107.3-0.1,161
		c0,7.3,0.7,12.1,10.2,11.6c2-0.1,6,4.3,6.1,6.7C1450.1,667.4,1450.3,682.2,1449.5,696.8z"/>
	<path class="st6" d="M904.7,514.9c8.3-1.6,10.2-6,10-13.3c-0.4-16.2-0.1-32.3-0.1-48.5c0-12-2.7-14.6-15.6-14.7
		c-19.5-0.1-38.9-0.2-58.4,0c-5.9,0.1-9.3-1.1-9-7.8c0.4-8.2-4.3-11.8-12.9-11.5c-11.8,0.3-23.6,0-35.5,0.1
		c-17.4,0-17.4,0-18.5,16.5c0,0.6-0.8,1.1-2,2.7c-3.4,0-7.5,0-11.6,0c-18.3,0-36.6,0-54.9,0c-8.3,0-14.4,2.4-14.4,11.6
		c-0.1,18-0.4,36,0.3,54c0.1,3.2,4.4,6.4,6.7,9.5c3.4,1.4,6.7,2.8,10.1,4.2c0,0,0,0,0,0c0,9.8,0,19.6,0,29.5c0,29.5,0,59.2,0,89.6
		c-16.1-1.7-17.7,7.3-17.2,18.6c0.5,11,0.1,22,0.1,33.1c0,25.3,0,25.3,25.7,24.9c29.7-0.5,50.1-16.1,55-44.4
		c2.6-15.1,2.5-30.6,2.8-46c0.1-7.2,2.4-9.7,9.9-9.4c11.8,0.5,23.6,0.1,35.5,0.1c20.5,0,19.8,0,20.7,19.8c0.7,15.3,1.3,31,5.3,45.6
		c6.7,24.1,45.3,42,70.2,33.6c3.6-1.2,7.3-7.5,7.5-11.6c0.8-17.6,0.2-35.3,0.4-52.9c0.1-6.8-2.7-9.7-9.6-11.2
		c-2.7-0.6-6.6-4.8-6.6-7.3c-0.4-35.6-0.5-71.3,0-106.9C898.5,519.9,902.1,515.4,904.7,514.9z M888.8,523.1
		c0.5,37.1,0.3,74.3,0.1,111.4c-0.1,7.3,0.8,12.1,10.2,11.6c2-0.1,5.9,4.3,6,6.7c0.6,15.1,0.6,30.1,0,45.2c-0.1,2.2-4.1,5.9-6.6,6.2
		c-33.5,3.9-54.5-12.4-57.2-45c-1.3-15-0.3-30.1-1.3-45.2c-0.2-3-4.4-8.3-6.8-8.4c-22.9-0.7-45.8-0.4-68.7-0.4
		c-2.2,0-4.4,0.4-8.3,0.8c0,5.7,0.2,11,0,16.4c-0.7,15,0,30.3-2.6,45c-5.6,32-29.7,38.6-56.6,36.7c-2-0.1-5.3-3.4-5.4-5.3
		c-0.4-17.2-0.2-34.4-0.2-52.6c6-0.5,10.1-0.8,15.5-1.2c0.2-4,0.7-7.9,0.7-11.7c0.1-36.8,0-73.5,0-110.3c0-15.8,0-15.8-17-18.3
		c0-17.2-0.3-34.8,0.4-52.3c0.1-1.9,5.8-5.1,9-5.2c21-0.5,42-0.5,62.9-0.1c7.9,0.2,11.7-2.2,10.7-10c-0.9-7.5,2.9-9.4,10-9.2
		c12.5,0.4,25,0.1,36.8,0.1c1.1,1.8,1.8,2.3,1.9,3c1.4,16,1.4,16,18.1,16c18.3,0,36.6,0.2,54.9-0.1c7.2-0.1,10.3,2,10.1,9.4
		c-0.4,16.1-0.1,32.1-0.1,49.4C888.4,502.7,888.6,512,888.8,523.1z"/>
	<path class="st7" d="M1883.7,554.5c0-14.6-2.1-16.7-17.1-16.7c-33.9-0.1-67.8,0-101.7,0c-4.1,0-8.1,0-12.2,0
		c0.3-16.3,6.9-22.8,23.7-22.9c30.8-0.3,61.7-0.2,92.5-0.1c8,0,14.7-1.2,14.6-10.9c-0.1-9.2-0.2-18.3-0.3-27.5s-0.3-18.3-0.4-27.5
		c-0.1-0.4-0.2-0.7-0.3-1.1c-0.5-1.6-0.9-3.3-1.4-4.9c0.6,2,1.1,4,1.7,6c-0.6-2-1.1-4-1.7-6c-3.2-1-6.5-2.6-9.7-3.5
		c-0.6-0.2-1.2-0.3-1.8-0.4c-0.9-0.2-1.8-0.3-2.7-0.3c-20.1-0.5-40.2-0.4-60.3-0.1c-13.6,0.2-27.2,0.9-40.7,1.4
		c-1.5,0.2-3,0.3-4.5,0.5c-3.1,0.4-6.2,0.9-9.2,1.3c-2.1,0.7-4.2,1.3-6.3,2c-2.9,0.6-5.9,1-8.7,1.9c-28.2,9.5-48.1,37.9-50.9,76.2
		c-0.3,2.2-0.6,4.3-0.9,6.5c-0.3,8-0.7,16.1-1.1,24.1c-0.3,8-0.6,16.1-0.6,24.1c0.2,42.1-5.9,36.8,37.8,37.1
		c27.4,0.2,54.8,0,82.3,0.1c3.7,0,7.4,0.3,11,0.5c0,15.6-6.9,22.8-21.9,23c-31.6,0.3-63.2,0.3-94.8,0c-10.1-0.1-14.7,3.5-14.5,13.5
		c0.4,16.5,0.2,33,0.1,49.5c0,9.1,4.3,13.4,13.9,13.3c19.4-0.2,38.8,0.1,58.3-0.1c16.3-0.2,32.6-0.9,48.9-1.3
		c2.9-0.7,5.8-1.4,8.7-2.1c13-1,24.4-5.5,34.6-13c1.5-1.1,2.9-2.2,4.3-3.4c23.7-20,27.5-48,30.5-75.3
		C1885.3,597.2,1883.8,575.7,1883.7,554.5z M1874.2,613.9c-0.4,12.7-1.4,25.7-5,37.8c-0.5,1.8-1.1,3.6-1.7,5.3s-1.3,3.4-2,5
		c-0.7,1.6-1.5,3.2-2.3,4.8c-1.2,2.3-2.5,4.5-3.9,6.6c-1,1.5-2,2.9-3.1,4.3c-10.8,13.7-26.4,22.6-46.7,26.3
		c-1.5,0.2-3.1,0.4-4.6,0.6c-33.6,0-67.1-0.4-100.7,0.2c-9.3,0.1-11.8-2.8-11.4-11.3c0.6-15.4,0.2-30.8,0.2-47.3
		c4.9-0.2,8.9-0.6,13-0.6c27.8,0,55.7,0,83.5-0.1c24.4-0.1,37.2-14,35.3-39.9c-43.4,0-86.9,0-131.8,0c0-9.8,0-19.4,0-28.8
		c0-15.7,0-31,0-46.3c0.3-2.2,0.6-4.5,0.9-6.7c0.9-3.2,1.6-6.4,2.4-9.6c0.2-0.8,0.4-1.6,0.6-2.4c0.4-1.6,0.7-3.2,1.1-4.8
		c1.7-7.2,3.7-14.3,6.7-21c2.2-4.9,4.9-9.3,8-13.2c11-14,26.9-22.1,46.4-25.1c3-0.3,5.9-0.7,8.9-1c0.1,0,0.2,0,0.3,0
		c8.7,0,17.5,0,26.2,0c26.3,0,52.7,0,80,0c0,18.9,0.3,36-0.4,53.2c-0.1,2.2-5.9,5.8-9.1,5.9c-29,0.5-57.9,0.2-86.9,0.3
		c-24.7,0.1-37.4,14.4-34.4,39.7c43.1,0,86.3,0,130.7,0C1874.4,569.4,1875,591.7,1874.2,613.9z"/>
	<path class="st7" d="M1693.9,523.8c-0.3,2.2-0.6,4.5-0.9,6.7c0.3-2.2,0.6-4.4,0.9-6.6C1693.9,523.9,1693.9,523.9,1693.9,523.8z"/>
	<path class="st8" d="M1670.9,576.3c0-40.8,0-81.6,0-122.4c0-13.5-1.9-15.5-15.7-15.5c-56.1-0.1-112.2,0.1-168.2-0.1
		c-10.5,0-15.1,3.7-15.1,14.3c0.2,82,0.1,163.9,0.2,245.9c0,12.6,2.3,14.8,15.3,14.8c56.1,0,112.2,0,168.2,0
		c13.4,0,15.3-1.8,15.3-14.6C1671,657.9,1670.9,617.1,1670.9,576.3z M1662.5,576.8c0,24.1-0.1,48.2-0.1,72.4
		c0,14.5,0.1,28.9,0.2,43.4c0.1,8.7-1.8,12.3-11.9,12.2c-53-0.5-106.1-0.4-159.1,0c-9.1,0.1-11.7-2.6-11.7-11.3
		c0.3-78.3,0.3-156.6,0-234.9c0-9.5,3.3-11.7,12.5-11.6c52.6,0.4,105.3,0.4,157.9,0c9.7-0.1,12.3,2.9,12.2,11.9
		c-0.2,19.7-0.3,39.3-0.3,59S1662.5,557.1,1662.5,576.8z"/>
	<path class="st9" d="M655.5,438.3c-30.1,0.1-60.3-0.1-90.4,0.1c-8.5,0-13.3,3.6-13,12.9c0.5,16.9,0.5,33.8,0,50.7
		c-0.3,9.2,4,12.7,12.8,12.7c9.5,0,19.1-0.5,28.6,0.3c2.9,0.2,7.8,3.9,7.8,6.1c0.3,31.6,0.5,63.2-0.4,94.8
		c-0.4,14.5-8.7,20.8-23.8,21.2c-5.3,0.1-11.1-1-15.9,0.6c-3.6,1.2-8.4,5.7-8.6,8.9c-0.8,18.7-1,37.5,0.1,56.2
		c0.2,3.7,6.3,10,10,10.2c62.9,3,99-22.6,104.5-86.7c2.4-28.1,0.4-56.6,0.4-84.9c0.4,0,0.7,0,1.1,0c0-29.8-0.2-59.6,0.1-89.3
		C668.9,442.9,665.2,438.3,655.5,438.3z M657.5,631.7c-0.9,25.8-11.8,48.7-36.4,62.7c-16.8,9.6-35.5,10.5-54.3,9.7
		c-1.9-0.1-5.2-3.4-5.2-5.3c-0.4-17.2-0.2-34.4-0.2-53.3c6.4,0,10.9,0.1,15.4,0c19.6-0.3,32.4-10.4,33-29.4
		c1.1-34.5,0.7-69.1,0.3-103.6c0-2.2-4.8-6.1-7.5-6.3c-10.6-0.7-21.3-0.6-32-0.2c-6.8,0.2-9.6-1.8-9.4-8.7c0.4-13.9,0.3-27.9,0-41.9
		c-0.1-6.2,2.4-8.5,8.8-8.5c27.1,0.2,54.2-0.2,81.2,0.4c2.9,0.1,8.2,4.5,8.2,7C659.3,513.5,659.5,572.7,657.5,631.7z"/>
	<path class="st10" d="M1127,588.1C1127,588.1,1127,588.1,1127,588.1c4.4-6.5,7-14.7,7-14.7c3.6-11.3,3.1-20.6,2.9-24.4
		c-1.4-32.2,0.4-64.6,0.6-96.8c0-1.1-0.1-2.2-0.2-3.2c-0.3-2.5-1.2-4.6-2.4-6.2c-0.5-0.6-1.1-1.2-1.7-1.7c-1.3-1-2.9-1.7-4.8-2.1
		c-0.9-0.2-1.9-0.4-3-0.4c-0.5,0-1.1-0.1-1.7-0.1c-28.9,0-57.9-0.1-86.8,0s-57.9,0-86.8,0.1c-5.8,0-11.7,1.1-11.7,8.9
		c-0.1,27.6-0.3,55.2-0.4,82.7c-1.8,2.7-3.5,5.3-5.3,8c-2.7,0.9-5.3,1.8-8,2.7c-0.9,1.9-2.4,3.7-3.1,5.6c-0.2,0.6-0.4,1.2-0.4,1.9
		c-0.3,16.1-0.6,32.2,0,48.2c0.1,2.3,0.2,4.6,0.3,6.9c0,0.7,0.3,1.3,0.6,1.9c0.1,0.2,0.3,0.4,0.4,0.6c0.3,0.4,0.7,0.8,1.1,1.3
		c0.2,0.2,0.4,0.4,0.6,0.6c0.4,0.4,0.9,0.8,1.4,1.2c1.7,1.4,3.6,2.9,5,4.3c2.4,2.5,4.8,5.1,7.3,7.6v0c0.1,2.8,0.3,5.6,0.4,8.4
		c0.5,8.4,1,16.7,1,25.1c0,4.3,0,8.5-0.1,12.8c0,2.1-0.1,4.3-0.1,6.4c-0.1,4.3-0.2,8.5-0.3,12.8c0,2.1-0.1,4.3-0.1,6.4
		c-0.1,4.3-0.2,8.5-0.3,12.8c2.3,2,4.5,5.4,6.8,6.6c0.4,0.2,0.7,0.3,1.1,0.4c0.2,0,0.4,0.1,0.5,0.1c12.4,0.3,24.9-0.1,37.3-0.4
		c4.1-0.1,8.3-0.2,12.4-0.3c0,0,0,0,0,0c-0.2-1.8-0.4-3.7-0.5-5.5c-13.7,0.1-27.4,0.4-41,0c-2.3-0.1-4.6-1.4-7-2.6
		c-0.8-0.4-1.5-0.8-2.3-1.1c0-32.2,0-64.4,0-96.7c-6.4-0.8-11.1-1.3-15.3-1.8c0-20,0-38.9,0-57.6c5.4-0.6,9.8-1.1,15.3-1.7
		c0-32.6,0-64.4,0-96.3c2.2-1.4,4.4-4,6.6-4.1c15.9-0.4,31.9-0.2,47.8-0.2c19.2,0,38.4,0,57.5,0s38.4,0,57.5,0.2c1,0,2,0.2,3,0.4
		c1.5,0.4,3,0.9,4.4,1.5c0.5,0.2,1,0.4,1.5,0.6c1,0.4,2,0.8,2.9,1.1c0,0,0,0,0,0c0,32,0,64.1,0,96.1c0,6.4,0,12.8,0,19.2
		c-0.2,1.1-0.4,2.7-0.9,4.6c0,0,0,0,0,0.1c0,0-3.5,13.8-14.4,24.5c-9.2,9.1-23.2,10.8-49,12c-17.5,0.8-39.1,1.4-64,1
		c2.7,0.8,5.4,1.7,8.2,2.5c0,0,0,0,0,0c0,0,0,0,0,0c17.5,2.6,32.8,3,45,2.6c3.2-0.1,6.2-0.3,9-0.5c0.5,0,1-0.1,1.5-0.1c0,0,0,0,0,0
		c5.5-0.4,11.5-0.9,17.5-1.6C1098.7,606.4,1117.9,601.7,1127,588.1z M1053.2,610.3c1.1-1.3,2.2-2.6,3.3-3.9c1.1,0.8,2.3,1.6,3.4,2.4
		c-1.1-0.8-2.3-1.6-3.4-2.4c1.1,0.6,2.3,1.1,3.4,1.7c0,0,0,0.6,0,0.6C1057.7,609.3,1055.4,609.8,1053.2,610.3z"/>
	<polygon class="st10" points="999.1,605.8 999.1,605.8 999.1,605.8 	"/>
	<path class="st11" d="M1197.8,438.3c-11.8-0.2-23.6-0.1-35.4,0c-13.7,0.1-15.7,2-15.7,15.5c0,56.6,0,113.1,0,169.7
		c0,4,0,7.9,0,11.9c-1.5-0.5-3-0.9-4.4-1.4c-4.1,4.1-11.4,8.1-11.7,12.4c-1.3,19-1,38.1-0.1,57.2c0.1,3.4,5.4,9,8.7,9.3
		c17.2,1.7,34.4,0.5,49.4-9.2c20.9-13.5,24.4-35.4,24.8-56.4c1.2-64.6,0.5-129.3,0.4-193.9C1213.7,441.9,1210.1,438.5,1197.8,438.3z
		 M1204.3,582.3c-0.1,24.6,0.4,49.3-1.2,73.8c-2.5,37.6-23.8,52.9-64.8,47.1c0-17,0-33.5,0-50c0-2.1,0.4-4.2,0.7-6.2
		c15.9-2.9,15.9-2.9,15.9-19.4c0-56.2,0.2-112.5-0.2-168.7c-0.1-8.9,2.3-12.9,12.1-12c7.9,0.7,16.1,0.8,24,0
		c10.6-1,13.9,2.8,13.8,12.9C1204.1,500.7,1204.5,541.5,1204.3,582.3z"/>
	<path class="st12" d="M413.3,607.3c-4.2,3.3-8.8,6.1-13.2,9.2c-0.8,0.9-1.5,1.7-2.3,2.6c0,0,0,0,0,0c-1,1.4-2.1,2.7-3.1,4.1
		c-0.8,0.7-1.7,1.4-2.5,2.2c0.8-0.7,1.7-1.4,2.5-2.2c-0.8,0.7-1.7,1.4-2.5,2.2c-3.1,3.7-6.1,7.3-9.2,11c-6.3,9.6-9.7,2.7-13.4-2.2
		c-0.9-0.7-1.8-1.5-2.6-2.2c-1.3,0-2.7-0.1-4-0.1c0,1.3-0.1,2.6-0.1,3.9c0,2-0.1,4.1-0.1,6.1c-0.1,0.4-0.2,0.7-0.2,1.1c0,0,0,0,0,0
		c0,0,0,0,0,0c8.1,5.8,4.4,11.3,1.4,17c-0.1,0.2-0.3,0.5-0.4,0.7c-0.3,0.5-0.5,1-0.7,1.5c-0.7,1.5-1.2,3.1-1.3,4.6
		c3.9-0.4,7.5-0.7,11.1-1c9.2-10.5,19-20.6,27.6-31.6c7.7-9.8,16.7-17.2,28.7-21.3c7.1-2.6,14.3-5.3,21.4-7.9c0.7-3,1.5-5.9,2.2-8.9
		c0.5-2.2,1.1-4.5,1.6-6.7c0,0,0,0,0,0c-7.7,0.9-15.4,1.8-23,2.8C425.2,597.3,419.4,602.5,413.3,607.3z"/>
	<path d="M998.7,690.6c0,5.4-1.5,10.7-2.3,16.1c0.2,1.8,0.3,3.7,0.5,5.5c0,0,0,0,0,0v0c2.2-3.4,6.3-6.7,6.4-10.1
		c0.4-27.8,0-55.7-0.2-83.5c-1.4-2.9-2.8-5.9-4.2-8.8C998.8,636.7,998.9,663.7,998.7,690.6z"/>
	<path class="st13" d="M428.9,613c0,2,0.1,4,0.1,6.1c1.3-0.4,2.5-0.8,4.4-1.5c0.2-0.1,0.4-0.1,0.6-0.2c0.6-0.2,1.3-0.4,2-0.7
		c0.5-0.2,1-0.3,1.6-0.5c-4.2,11.7-7.7,21.4-11.2,31.1c1.7,0,3.3,0.1,5,0.1c6.3-14.1,12.7-28.2,19-42.4
		C443.2,607.7,436,610.4,428.9,613z"/>
	<path class="st14" d="M938.7,705.9c0.1-4.3,0.2-8.5,0.3-12.8c0-2.1,0.1-4.3,0.1-6.4c0.1-4.3,0.2-8.5,0.3-12.8
		c0-2.1,0.1-4.3,0.1-6.4c0.1-4.3,0.1-8.5,0.1-12.8c0-8.4-0.5-16.7-1-25.1c-0.2-2.8-0.3-5.6-0.4-8.4v0c-0.2,10-0.4,20-0.6,30
		c-0.2,10-0.4,20-0.4,30c0,3.1,0.1,6.2,0.3,9.3C937.8,695.6,938.3,700.7,938.7,705.9L938.7,705.9z"/>
	<path class="st15" d="M938.1,530.2c0.1-27.6,0.3-55.2,0.4-82.7"/>
	<path class="st13" d="M291.5,554.8c-4.6,0-9.2,0-13.7,0c2.1,2.9,4.2,5.7,6.3,8.6C286.5,560.5,289,557.7,291.5,554.8z"/>
	<path class="st16" d="M418.5,657.6c1.9,0.3,3.8,0.5,5.7,0.8c2.4-3.6,4.8-7.3,7.1-10.9c-1.7,0-3.3-0.1-5-0.1
		C423.7,650.8,421.1,654.2,418.5,657.6z"/>
	<path class="st10" d="M1007.3,608.3c-2.7-0.8-5.5-1.7-8.2-2.5l0,0c-0.1,1.3-0.2,2.7-0.3,4c1.4,2.9,2.8,5.9,4.2,8.8
		C1004.5,615.1,1005.9,611.7,1007.3,608.3C1007.3,608.3,1007.3,608.3,1007.3,608.3z"/>
	<path class="st13" d="M96.8,554.8c-2.3,0-4.6,0-6.9,0c1,1.9,2,3.8,3,5.7C94.2,558.7,95.5,556.7,96.8,554.8z"/>
	<path class="st13" d="M197.6,554.8c-2.3,0-4.6,0-6.9,0c1.3,1.9,2.6,3.8,3.9,5.7C195.6,558.7,196.6,556.7,197.6,554.8z"/>
	<path class="st17" d="M698.8,517.7c-3.4-1.4-6.7-2.8-10.1-4.2"/>
	<path class="st13" d="M160.9,554.8c-2.3,0-4.6,0-6.9,0c1,1.3,1.9,2.6,2.9,3.9C158.3,557.4,159.6,556.1,160.9,554.8z"/>
	<path class="st18" d="M1804.9,712c2.9-0.7,5.8-1.4,8.7-2.1"/>
	<path class="st18" d="M1685.5,528.3c0.3-2.2,0.6-4.3,0.9-6.5"/>
	<path class="st15" d="M924.8,540.9c2.7-0.9,5.3-1.8,8-2.7"/>
	<path class="st13" d="M419.7,554.8c-2.3,0-4.6,0-6.9,0c1,1.3,1.9,2.6,2.9,3.9C417,557.4,418.3,556.1,419.7,554.8z"/>
	<path class="st18" d="M1882.9,448.9c-0.6-2-1.1-4-1.7-6"/>
	<path class="st18" d="M1752.3,441.7c-2.1,0.7-4.2,1.3-6.3,2"/>
	<path class="st18" d="M1766,439.9c-1.5,0.2-3,0.3-4.5,0.5"/>
	<path d="M1053.2,610.3c2.3-0.5,4.5-1,6.8-1.5c-1.1-0.8-2.3-1.6-3.4-2.4C1055.4,607.7,1054.3,609,1053.2,610.3z"/>
	<path class="st10" d="M1059.9,608.2c-1.1-0.6-2.3-1.2-3.4-1.7c1.1,0.8,2.3,1.6,3.4,2.4C1059.9,608.8,1059.9,608.2,1059.9,608.2z"/>
	<path class="st19" d="M361.5,666.9c0.1-1.6,0.7-3.1,1.3-4.6c0.2-0.5,0.5-1,0.7-1.5c0.1-0.3,0.3-0.5,0.4-0.7c3-5.7,6.7-11.2-1.4-17
		c0,0,0,0,0,0c0,0,0,0,0,0c-0.7-0.2-1.3-0.3-2-0.5c-0.2,0.1-0.5,0.2-0.7,0.3c-0.8,0.3-1.5,0.6-1.9,1.1c-9.8,13.7-9.8,13.7-22.3,0.8
		c-3.1,1.6-6.3,3.2-9.5,4.9c0.3,1.4,0.7,2.8,1,4.1c0.4,1.8,0.8,3.5,1.3,5.3c0.8,3.2,1.5,6.4,2.3,9.8c-0.7,0.1-1.3,0.2-1.9,0.3
		c-0.6,0.1-1.2,0.2-1.8,0.3c-8.2,1.6-12.9,5.6-8.5,15.5c2.8,1.4,5.6,2.8,8.4,4.2c0.1,0,0.1,0.1,0.2,0.1l0,0h0c1.7-0.1,3.3-0.2,5-0.3
		c0,0,0,0,0,0c0,0,0,0,0,0c0.7,0.1,1.5,0.2,2.2,0.3c0,0.5,0,0.9,0,1.4c0,0.9,0,1.8,0,2.7c0,2.3,0,4.5,0.3,6.7
		c0.4,2.6,1.1,5.9,2.9,7.3c5.6,4.5,10.9,1,11.3-8.5c0.4-8.8,3.2-13.8,13.3-12.6c2.2,0.2,4.6-0.3,6.6-1.2c2.8-1.2,5.4-3,8-4.5
		c-1.9-2.1-3.9-4.3-5.5-6.1c0.5-2.7,1-5.7,1.5-8.7C369.1,666.2,365.5,666.5,361.5,666.9z M331.8,668.5c-0.1,0.1-0.2,0.2-0.3,0.2
		s-0.3,0.1-0.4,0.2v0l0,0c0-0.5,0-1,0-1.5c0.2,0.1,0.5,0.3,0.7,0.4C331.8,668.1,331.9,668.4,331.8,668.5z M342.5,682.7
		c-1.9-2.1-3.4-3.8-4.8-5.3c-0.3-0.3-0.6-0.7-0.9-1c-0.5-0.5-1-1.1-1.4-1.6c0,0-0.1-0.1-0.1-0.1c0.8-0.5,1.7-1.2,2.5-1.8
		c0.3-0.2,0.6-0.4,0.8-0.6c1.1-0.8,2.2-1.3,3-1.1c3.4,0.9,6.3,3.4,9.4,5.3C348.6,678.2,346.3,679.9,342.5,682.7z"/>
	<polygon class="st20" points="266.3,698.1 266.3,698.1 266.3,698.1 266.3,698.1 	"/>
	<path class="st20" d="M266.3,698.1c-1.3-1.1-2.2-2-2.8-2.7c0,0,0,0-0.1-0.1c-0.3-0.3-0.5-0.6-0.7-0.8c-0.3-0.5-0.3-0.9,0-1.3
		c0.5-0.5,1.7-1,3.6-1.7c3-2.4,6-4.8,9-7.3c-0.3-1.9-0.7-3.8-1-5.7c-0.7-0.5-1.5-0.9-2.2-1.4c-0.5-0.3-1-0.6-1.5-1c0,0-0.1,0-0.1,0
		c-2,0.1-3.9,0.2-5.9,0.3c0,0,0,0,0,0c0,0,0,0,0,0c-7.6-1.3-6.1-4.7-3.7-8.2c0.4-0.7,0.9-1.3,1.4-2c-0.6-0.9-1.3-1.8-1.9-2.7
		c-4.9,0-9.9,0-14.9,0c1,5.3,1.8,9.3,2.9,15.2c-4.3-2.1-6.6-3.2-11.4-5.5c0,1.5,0,2.9,0,4.3c0,4.1,0,7.7,0,11.4
		c1.8,1.2,3.5,2.4,5.8,4c0.3,0.2,0.7,0.5,1,0.7c-2.4,1.2-4.2,2.1-6,3c-0.7,1.7-1.4,3.4-2.2,5.1c3.5,4,7,8,11.1,12.7
		c0.6,0.7,1.2,1.3,1.8,2c3.6-5.6,5.3-8.3,6.4-10c4.7,1.4,8.8,2.7,13,3.9c0-3.3,0-6.5,0-9.8C267.4,699.7,266.9,698.9,266.3,698.1z"/>
	<path class="st13" d="M335.6,644.8c12.6,12.9,12.6,12.9,22.3-0.8c0.4-0.5,1.2-0.8,1.9-1.1c0.3-0.1,0.5-0.2,0.7-0.3
		c0.7-0.2,1.4-0.4,2.1-0.6c0-2,0.1-4.1,0.1-6.1c0-1.3,0.1-2.6,0.1-3.9l0,0c0,0,0,0,0,0c-5.6-6.2-11.3-12.4-16.9-18.7
		c-6.7,6.2-13.5,12.5-20.2,18.7c-4.1,3.8-6.7,6.3-7.7,8.1c-0.2,0.3-0.3,0.6-0.4,0.9c-0.1,0.4-0.2,0.9-0.1,1.3c0.1,0.5,0.3,1,0.7,1.5
		c0.1,0.1,0.2,0.2,0.3,0.4c0.4,0.5,0.9,1,1.6,1.5c0.1,0.1,0.2,0.1,0.2,0.2c0.3,0.2,0.6,0.5,1,0.7c0.6,0.5,1.4,1,2.2,1.5
		c0.3,0.2,0.6,0.4,0.9,0.6c0.3,0.2,0.6,0.4,1,0.7c0.2,0.1,0.3,0.2,0.5,0.3C329.3,648,332.5,646.4,335.6,644.8z"/>
	<path class="st20" d="M351.8,604.8c0.6-1.3,1.2-2.5,1.8-3.8c1.7-4.6,3.3-9.1,5-13.8c0.6-1.5,1.1-3.1,1.7-4.7
		c-7.8-0.9-7.8-0.9-36.4,30.1c11,5.4,2.5,12.6,2,19.1c6.7-6.2,13.5-12.5,20.2-18.7C347.9,610.4,349.8,607.6,351.8,604.8z"/>
	<path class="st21" d="M327,689.3L327,689.3c-0.1,0-0.1-0.1-0.2-0.1c-2.8-1.4-5.6-2.8-8.4-4.2c-5.7,11.6-16.7,5.1-25.1,6
		c-4.1,0.4-8.8-4.6-13.2-7.2c-1.5,0.2-3.1,0.4-4.6,0.5c-3,2.4-6,4.8-9,7.3c0,2.1,0,4.3,0,6.4c1.4,0.2,2.9,0.4,4.3,0.5
		c9.3,2.5,18.6,5,27.9,7.4c2.2,0.4,4.4,0.8,6.5,1.3C312.4,701.2,319.7,695.3,327,689.3z"/>
	<path class="st20" d="M267.2,638.1c1.9,3,3.7,6,5.6,9c1.2,1.1,2.4,2.2,3.5,3.3c0,0,0,0,0,0c6,0,12.1,0,18.2-0.1
		c0,0,0.1-0.2,0.1-0.2c0,0,0,0,0,0c-0.5-3.2,4.3-6,3-9.5c0-0.1-0.1-0.2-0.1-0.3c-0.1-0.2-0.2-0.4-0.4-0.7c-0.5-0.7-1.3-1.5-2.5-2.3
		c-3.6-2.4-4.3-8.6-7.1-12.7c-0.5-0.8-4.8-0.1-6.5,1.1c-1.9,1.3-2.8,4-4.6,6.8c-2.1-5-3.9-9-5.8-13.5c-2.1,1.3-3.4,2.6-4.3,4
		C263.2,628,266.4,633.2,267.2,638.1z"/>
	<path class="st21" d="M399.7,613.4c0.1,1,0.3,2.1,0.4,3.1c4.4-3,9-5.9,13.2-9.2c6.1-4.8,11.9-10,17.8-15.1l0,0
		c-0.7-0.4-1.3-0.8-1.9-1.1c-0.6-0.3-1.2-0.7-1.7-1s-1.1-0.5-1.6-0.8c-0.3-0.1-0.5-0.2-0.8-0.3c-1.5-0.6-2.8-0.8-4-0.8
		c-3.8,0.1-6.6,3.4-10.5,10.5c1,7.2-4.1,7.3-9.3,7.4c-0.1,0.7-0.5,1.1-1.3,1h0C400,609.3,399.8,611.4,399.7,613.4z"/>
	<path class="st20" d="M426.4,647.3c3.5-9.7,7-19.5,11.2-31.1c-0.6,0.2-1.1,0.4-1.6,0.5c-0.7,0.2-1.4,0.5-2,0.7
		c-0.2,0.1-0.4,0.1-0.6,0.2c-1.9,0.6-3.1,1-4.4,1.5h0c-4.9,13.2-9.8,26.5-14.6,39.7c1-0.1,2-0.2,3-0.3c0-0.1,0.1-0.3,0.2-0.4
		c0.2-0.3,0.5-0.5,1-0.5C421.1,654.2,423.7,650.8,426.4,647.3z"/>
	<path class="st21" d="M262.3,666.4c0.8,3.4,1.6,6.8,2.4,10.1c0,0,0,0,0,0c2-0.1,3.9-0.2,5.9-0.3c0,0,0.1,0,0.1,0c0,0,0,0,0,0
		c1.9-8.6,3.8-17.2,5.7-25.8c0,0,0,0,0,0c-1.2-1.1-2.4-2.2-3.5-3.3c-0.9,0.1-1.5,0.7-1.9,1.5c-0.1,0.1-0.1,0.3-0.2,0.4
		c-0.2,0.4-0.4,0.9-0.6,1.4c-1.2,3.6-1.9,8.2-8.4,3.1c0,0.1,0,0.1,0,0.2c-0.4,3.4-0.8,6.8-1.2,10.1
		C261.1,664.6,261.7,665.5,262.3,666.4z"/>
	<path class="st21" d="M346,613.2c5.6,6.2,11.3,12.4,16.9,18.7c0,0,0,0,0,0c1.3,0,2.7,0.1,4,0.1c-3.8-9-7.6-18-11.4-27
		c-1.3,0-2.5-0.1-3.8-0.1C349.8,607.6,347.9,610.4,346,613.2z"/>
	<path class="st21" d="M238,696.6c-1.3-0.3-2.5-0.7-3.8-1c-5.7,0.4-11.4,0.7-17.3,1.1c-2,0.1-4,0.3-6,0.4c0,3,0,6,0,11
		c9.1-2.4,17-4.4,24.8-6.4C236.5,700.1,237.2,698.4,238,696.6z"/>
	<path class="st20" d="M181.6,700c-7.4-5-15.1-9.7-22.6-14.5c-0.7,1-1.5,2-2.2,3c5.8,5.3,11.5,10.9,17.7,15.8
		c1.6,1.3,5.1,0.4,7.7,0.5C182,703.2,182.5,700.7,181.6,700z"/>
	<path class="st20" d="M399.7,613.4c0.1-2.1,0.3-4.1,0.4-6.2c-0.3-0.3-0.6-0.6-0.9-0.9c-0.6-0.6-1.2-1.2-1.7-1.8
		c-1.4-1.5-2.9-3-4.7-3.9c-2.3-1.2-7.3-2-7.8-1.2c-1.6,2.9-3.3,7.2-2.1,9.7c0.8,1.6,3.8,2.1,6.6,2.8c0.9,0.2,1.9,0.4,2.7,0.7
		C394.7,612.9,397.2,613.1,399.7,613.4z"/>
	<path class="st22" d="M135.5,629.8c-4.2-1.9-8.3-3.8-14-6.4c-1.3-0.6-2.7-1.2-4.2-1.9c5.8,12.3,11.6,19.2,23,19.2
		C138.7,637.1,137.1,633.5,135.5,629.8z"/>
	<path class="st13" d="M270.1,650.3c0.2-0.5,0.4-1,0.6-1.4c0.1-0.1,0.1-0.3,0.2-0.4c0.5-0.8,1.1-1.3,1.9-1.5h0c-1.9-3-3.7-6-5.6-9
		c-1.9,5.1-3.7,10.2-5.6,15.3C268.3,658.5,268.9,653.9,270.1,650.3z"/>
	<path class="st13" d="M291.8,674.2c0.6,1.7,1.3,3.3,1.9,5c3.7-1.4,7.5-2.7,11.1-4.4c0.1-0.1-1.6-4.4-1.7-4.4
		C299.3,671.5,295.5,672.8,291.8,674.2z"/>
	<path class="st13" d="M294.5,650.3c-0.8,3.9-1.5,7.8-2.7,13.7c1.6-1.3,2.9-2.4,4-3.5c4.6-4.4,5.1-6.8,2.1-8.8
		c-0.8-0.6-2-1.1-3.4-1.6C294.6,650.2,294.5,650.3,294.5,650.3z"/>
	<path class="st13" d="M403.4,573.3c-0.4-0.3-2.6,1.7-4.8,3.1c2.1,1.8,3.4,3.6,5.2,4.1c1,0.3,2.6-1.5,4-2.3
		C406.4,576.5,405.2,574.6,403.4,573.3z"/>
	<path class="st13" d="M135.5,629.8c1.6,3.6,3.2,7.3,4.8,10.9c0,0,0.1,0.1,0.1,0.1c1.5-0.1,3.1-0.2,4.6-0.3c0,0,0,0,0,0c0,0,0,0,0,0
		c-1.2-1.4-2.4-2.7-3.6-4.1C139.4,634.3,137.4,632,135.5,629.8z"/>
	<path class="st13" d="M383,636.3c-4.5-0.7-8.9-1.5-13.4-2.2C373.3,639,376.7,645.9,383,636.3z"/>
	<path class="st13" d="M410.7,598.8c-3.1,2.5-6.2,5-9.3,7.4C406.6,606.2,411.7,606,410.7,598.8z"/>
	<path class="st13" d="M238,696.6c1.8-0.9,3.6-1.8,6-3c-0.4-0.2-0.7-0.5-1-0.7c-2.3-1.6-4.1-2.8-5.8-4c-1,2.2-1.9,4.4-2.9,6.7
		C235.5,696,236.7,696.3,238,696.6z"/>
	<path class="st13" d="M400.1,616.5c-0.1-1-0.3-2.1-0.4-3.1h0c-2.5-0.3-5-0.5-7.5-0.7c1.9,2.1,3.8,4.3,5.7,6.4c0,0,0,0,0,0
		C398.6,618.2,399.3,617.4,400.1,616.5z"/>
	<path class="st13" d="M235.4,626.2c0.7,0,1.4,0,2.1,0c0-2.1,0-4.2,0-6.4c-0.7,0-1.4,0-2.1,0C235.4,622,235.4,624.1,235.4,626.2z"/>
	<path class="st13" d="M275.4,684.3C275.4,684.3,275.4,684.3,275.4,684.3c1.5-0.2,3.1-0.4,4.6-0.5c-1.9-1.7-3.8-3.5-5.7-5.2
		C274.7,680.5,275,682.4,275.4,684.3z"/>
	<path class="st13" d="M298.6,705.9c0.8,1.7,1.7,3.3,2.5,5c1.3-1.2,2.7-2.5,4-3.7C303,706.8,300.8,706.4,298.6,705.9z"/>
	<path class="st16" d="M412.7,662.7C412.7,662.7,412.7,662.7,412.7,662.7c-0.1-0.1-0.2-0.2-0.2-0.2c-1.1,0.8-2.2,1.6-3.2,2.4
		c0.5,0.4,0.9,0.9,1.4,1.3c0.8-1.1,1.6-2.1,2.5-3.2c0,0,0,0,0,0c0,0-0.1-0.1-0.3-0.2C412.8,662.8,412.7,662.8,412.7,662.7z"/>
	<path class="st22" d="M142.7,644.5c0.7-1.3,1.5-2.6,2.2-3.9c0,0,0,0,0,0c-1.5,0.1-3.1,0.2-4.6,0.3C141.2,642,142,643.2,142.7,644.5
		z"/>
	<path class="st16" d="M414.3,658.7c-0.6,1.3-1.3,2.5-1.9,3.8c0,0,0.1,0.1,0.2,0.2c0,0,0,0,0,0c0,0,0.1,0.1,0.1,0.1
		c0.1,0.1,0.3,0.2,0.3,0.2c1.4-1.6,2.9-3.1,4.3-4.6C416.4,658.5,415.4,658.6,414.3,658.7z"/>
	<path class="st13" d="M351.8,604.8c1.3,0,2.5,0.1,3.8,0.1c-0.7-1.3-1.4-2.6-2-3.8C352.9,602.3,352.4,603.6,351.8,604.8z"/>
	<path class="st13" d="M266.4,698c0,0,0,0.1,0,0.1C266.4,698.1,266.4,698.1,266.4,698C266.3,698.1,266.3,698.1,266.4,698
		c0.5,0.9,1,1.7,1.6,2.6l0,0c0,0,0.1-0.1,0.1-0.1c0.9-0.6,1.7-1.3,2.6-1.9C269.3,698.3,267.9,698.2,266.4,698z"/>
	<path class="st23" d="M394.7,623.2c-0.8,0.7-1.7,1.4-2.5,2.2"/>
	<path class="st13" d="M332,689C332,689,332,689,332,689c0.4,0.1,0.7,0.1,1.1,0.2c0.4,0,0.7,0.1,1.1,0.1
		C333.4,689.2,332.7,689.1,332,689z"/>
	<path class="st20" d="M242.6,480c13.9,0,25.1,0,39.3,0C268,473.5,257,467.3,242.6,480z"/>
	<path class="st9" d="M1003.7,546.3c11-0.3,22.1-0.1,33.1-0.1c3.8,0,7.6,0,11.4,0c31.8,0,31.6,0,31-30.7c-0.1-7-2.2-9.8-9.8-9.6
		c-14.4,0.5-28.9,0.1-43.4,0.1c-32.9,0-32.7,0-31.1,32.1C995.2,544.2,997.3,546.5,1003.7,546.3z M1012.9,515
		c18.5,0.5,37.1,0.1,55.7,0.1c0.9,2.4,1.2,2.7,1.2,3.1c1.7,19.5,1.7,19.5-18,19.5c-12.9,0-25.9-0.4-38.8,0.1
		c-9.7,0.4-8.9-5.4-9-11.4C1003.9,520.3,1003.2,514.8,1012.9,515z"/>
	<path class="st24" d="M1127.4,448.2C1127.4,448.2,1127.4,448.2,1127.4,448.2c-1-0.3-2-0.7-3-1.1c-0.5-0.2-1-0.4-1.5-0.6
		c-1.5-0.6-2.9-1.1-4.4-1.5c-1-0.2-2-0.4-3-0.4c-19.2-0.1-38.4-0.2-57.5-0.2c-19.2,0-38.4,0-57.5,0c-16,0-31.9-0.2-47.8,0.2
		c-2.2,0.1-4.4,2.7-6.6,4.1c4.9-0.2,9.9-0.5,14.8-0.5C1016.4,448.2,1071.9,448.2,1127.4,448.2z"/>
	<path class="st24" d="M998.7,690.6c0.2-27,0.1-53.9,0.1-80.9c0,0,0,0,0,0c0.1-1.3,0.2-2.6,0.3-4l0,0v0c-0.5,1.2-1.3,2.4-1.9,3.6
		c-0.5,0.8-0.9,1.6-1.3,2.4c-0.2,0.4-0.3,0.8-0.5,1.2s-0.3,0.8-0.3,1.2c-0.1,0.4-0.1,0.8-0.1,1.2c-0.3,26.3-0.3,52.7-0.1,79
		c0.1,6.3-1.6,9.5-8.9,9.2c-3.3-0.1-6.6-0.2-10-0.3c-10-0.2-19.9-0.1-29.9-0.2c0.8,0.3,1.5,0.7,2.3,1.1c2.3,1.2,4.6,2.6,7,2.6
		c13.7,0.3,27.3,0,41,0c0,0,0,0,0,0C997.2,701.3,998.6,696,998.7,690.6z"/>
	<path class="st25" d="M1127.4,563.6c-0.3,1.6-0.6,3.1-0.9,4.7"/>
	<path class="st26" d="M1443.5,646c-9.5,0.6-10.3-4.3-10.2-11.6c0.2-53.7,0.1-107.3,0.1-161c0-26.3,0-25.9-27.8-26.5
		c-42.3-0.9-83.2,2.8-118.4,28.6c-0.4,0.3-1.4-0.2-3.6-0.5c0-8.7,0-17.6,0-28c-13.2,0-25,0.5-36.6-0.2c-9.5-0.6-12.3,2.5-12.3,11.7
		c0.4,78.3,0.2,156.6,0.2,234.9c0,3.5,0.5,7,0.7,10.2c16.5,0,31.6,0,46.5,0c0.6-1.8,1.2-2.8,1.2-3.9c0.1-29.4-0.2-58.8,0.3-88.2
		c0.2-12.4,1-25.1,3.7-37.2c9.6-43,53.1-73.1,96.6-66.5c0,3.7,0,7.6,0,11.5c0,44.1-0.4,88.2,0.3,132.3c0.6,37,21.2,55.4,57.4,52.4
		c2.9-0.3,7.7-4.7,7.9-7.4c0.8-14.7,0.7-29.4,0.1-44.1C1449.5,650.3,1445.5,645.9,1443.5,646z"/>
	<path class="st27" d="M905.4,505.8c0-17.2-0.3-33.3,0.1-49.4c0.2-7.4-2.9-9.6-10.1-9.4c-18.3,0.3-36.6,0.1-54.9,0.1
		c-16.7,0-16.7,0-18.1-16c-0.1-0.6-0.7-1.2-1.9-3c-11.8,0-24.3,0.3-36.8-0.1c-7.2-0.2-11,1.7-10,9.2c1,7.8-2.8,10.2-10.7,10
		c-21-0.4-42-0.4-62.9,0.1c-3.2,0.1-8.9,3.3-9,5.2c-0.7,17.5-0.4,35-0.4,52.3c17,2.5,17,2.5,17,18.3c0,36.8,0,73.5,0,110.3
		c0,3.8-0.4,7.7-0.7,11.7c-5.5,0.4-9.6,0.8-15.5,1.2c0,18.2-0.2,35.4,0.2,52.6c0,1.9,3.4,5.1,5.4,5.3c26.9,1.8,50.9-4.7,56.6-36.7
		c2.6-14.7,1.9-30,2.6-45c0.2-5.4,0-10.7,0-16.4c3.9-0.4,6.1-0.8,8.3-0.8c22.9,0,45.8-0.3,68.7,0.4c2.5,0.1,6.6,5.3,6.8,8.4
		c1,15,0,30.2,1.3,45.2c2.8,32.6,23.7,48.9,57.2,45c2.5-0.3,6.5-4,6.6-6.2c0.6-15.1,0.6-30.1,0-45.2c-0.1-2.4-4.1-6.9-6-6.7
		c-9.5,0.5-10.3-4.3-10.2-11.6c0.3-37.1,0.4-74.3-0.1-111.4C888.6,512,888.4,502.7,905.4,505.8z M809.9,546.2c-17.4,0-34.9,0-53.7,0
		c0-12.4,0.2-22.7-0.1-32.9c-0.2-6,2.8-7.4,8.4-7.4c22.1,0.2,44.2,0.2,66.3,0c6.8-0.1,9.3,2.1,9.7,8.8
		C842.2,546.2,842.4,546.2,809.9,546.2z"/>
	<path class="st28" d="M1743.7,545.8c-3-25.4,9.7-39.6,34.4-39.7c29-0.1,57.9,0.2,86.9-0.3c3.2-0.1,9-3.7,9.1-5.9
		c0.8-17.1,0.4-34.3,0.4-53.2c-27.2,0-53.7,0-80,0c-8.8,0-17.5,0-26.2,0c-0.1,0-0.2,0-0.3,0c-3,0.3-5.9,0.7-8.9,1
		c-19.5,3-35.5,11.1-46.4,25.1c-3.1,3.9-5.7,8.3-8,13.2c-3.1,6.6-5,13.8-6.7,21c-0.4,1.6-0.8,3.2-1.1,4.8c-0.2,0.8-0.4,1.6-0.6,2.4
		c-0.8,3.2-1.5,6.4-2.4,9.6c0,0,0,0.1,0,0.1c-0.3,2.2-0.6,4.4-0.9,6.6c0,15.3,0,30.6,0,46.3c0,9.4,0,19,0,28.8
		c44.8,0,88.4,0,131.8,0c1.9,25.9-10.9,39.8-35.3,39.9c-27.8,0.1-55.7,0-83.5,0.1c-4,0-8.1,0.4-13,0.6c0,16.5,0.5,31.9-0.2,47.3
		c-0.4,8.5,2.1,11.4,11.4,11.3c33.5-0.5,67.1-0.2,100.7-0.2c1.5-0.2,3.1-0.4,4.6-0.6c20.2-3.7,35.9-12.5,46.7-26.3
		c1.1-1.4,2.1-2.8,3.1-4.3c1.4-2.1,2.7-4.3,3.9-6.6c0.8-1.5,1.6-3.1,2.3-4.8c0.7-1.6,1.4-3.3,2-5s1.2-3.5,1.7-5.3
		c3.6-12.1,4.6-25.1,5-37.8c0.8-22.2,0.2-44.5,0.2-68C1830,545.8,1786.8,545.8,1743.7,545.8z"/>
	<path class="st18" d="M1768,446.8c-3,0.3-5.9,0.7-8.9,1"/>
	<path class="st18" d="M1768.3,446.8c-0.1,0-0.2,0-0.3,0"/>
	<path class="st18" d="M1693.9,523.8c-0.3,2.2-0.6,4.5-0.9,6.7"/>
	<path class="st18" d="M1809.5,704c-1.5,0.2-3.1,0.4-4.6,0.6"/>
	<path class="st26" d="M1650.5,446.9c-52.6,0.4-105.3,0.4-157.9,0c-9.2-0.1-12.6,2.2-12.5,11.6c0.4,78.3,0.3,156.6,0,234.9
		c0,8.7,2.6,11.4,11.7,11.3c53-0.4,106.1-0.4,159.1,0c10.1,0.1,12-3.5,11.9-12.2c-0.1-14.5-0.2-28.9-0.2-43.4
		c0-24.1,0.1-48.2,0.1-72.4c0-19.7-0.1-39.3-0.1-59s0-39.3,0.3-59C1662.8,449.7,1660.1,446.8,1650.5,446.9z M1612,645.6
		c-25.7,0-50.8,0.2-75.8-0.3c-2.2,0-6.1-4.4-6.1-6.8c-0.4-41.9-0.4-83.8,0.1-125.7c0-2.3,4.9-6.4,7.6-6.5
		c24.4-0.5,48.8-0.3,74.3-0.3C1612,552.3,1612,598,1612,645.6z"/>
	<path class="st26" d="M651.2,447.4c-27.1-0.5-54.1-0.2-81.2-0.4c-6.3,0-8.9,2.3-8.8,8.5c0.3,14,0.4,27.9,0,41.9
		c-0.2,6.9,2.6,9,9.4,8.7c10.7-0.4,21.4-0.5,32,0.2c2.8,0.2,7.5,4.1,7.5,6.3c0.4,34.5,0.8,69.1-0.3,103.6c-0.6,19-13.4,29-33,29.4
		c-4.5,0.1-9,0-15.4,0c0,18.9-0.2,36.1,0.2,53.3c0,1.9,3.3,5.2,5.2,5.3c18.8,0.8,37.5-0.1,54.3-9.7c24.7-14.1,35.6-36.9,36.4-62.7
		c2-59.1,1.7-118.2,1.9-177.4C659.4,451.9,654.1,447.5,651.2,447.4z"/>
	<path class="st29" d="M1190.8,446.9c-7.9,0.8-16.1,0.7-24,0c-9.8-0.9-12.2,3.1-12.1,12c0.4,56.2,0.2,112.5,0.2,168.7
		c0,16.5,0,16.5-15.9,19.4c-0.2,1.9-0.7,4-0.7,6.2c-0.1,16.5,0,33,0,50c41.1,5.8,62.3-9.5,64.8-47.1c1.7-24.5,1.1-49.2,1.2-73.8
		c0.2-40.8-0.2-81.6,0.2-122.4C1204.7,449.7,1201.4,445.9,1190.8,446.9z"/>
	<path class="st21" d="M360.6,642.5c0.7,0.2,1.3,0.3,2,0.5c0,0,0,0,0,0c0,0,0,0,0,0c0-0.4,0-0.7,0.2-1.1
		C362,642.1,361.3,642.3,360.6,642.5z"/>
	<path class="st22" d="M338.6,672.3c-0.3,0.2-0.6,0.4-0.8,0.6c-0.8,0.6-1.7,1.3-2.5,1.8c0,0,0.1,0.1,0.1,0.1c0.5,0.5,1,1.1,1.4,1.6
		c0.3,0.3,0.6,0.7,0.9,1c1.4,1.6,2.9,3.2,4.8,5.3c3.8-2.8,6.2-4.5,8.6-6.3c-3.1-1.8-6-4.4-9.4-5.3
		C340.8,670.9,339.7,671.5,338.6,672.3z"/>
	<path class="st2" d="M331.8,667.8c-0.2-0.1-0.5-0.3-0.7-0.4c0,0.5,0,1,0,1.5v0c0.1-0.1,0.3-0.1,0.4-0.2s0.2-0.1,0.3-0.2
		C331.9,668.4,331.8,668.1,331.8,667.8z"/>
	<path class="st13" d="M262.3,666.4c-0.5,0.7-0.9,1.3-1.4,2c-2.4,3.5-3.9,6.8,3.7,8.2C263.9,673.2,263.1,669.8,262.3,666.4z"/>
	<path class="st13" d="M262.8,694.5c0.2,0.2,0.4,0.5,0.7,0.8c0,0,0,0,0.1,0.1c0.6,0.7,1.6,1.5,2.8,2.7c0,0,0,0,0,0c0,0,0,0,0.1,0.1
		c0,0,0-0.1,0-0.1c0-2.1,0-4.3,0-6.4c-1.9,0.7-3.2,1.1-3.6,1.7C262.4,693.6,262.4,694,262.8,694.5z"/>
	<path class="st30" d="M1013,537.9c12.9-0.6,25.9-0.1,38.8-0.1c19.7,0,19.7,0,18-19.5c0-0.4-0.3-0.7-1.2-3.1
		c-18.6,0-37.1,0.4-55.7-0.1c-9.6-0.3-9,5.3-8.9,11.4C1004.1,532.5,1003.3,538.3,1013,537.9z"/>
	<path class="st11" d="M830.9,505.9c-22.1,0.3-44.2,0.2-66.3,0c-5.6,0-8.6,1.4-8.4,7.4c0.3,10.2,0.1,20.5,0.1,32.9
		c18.9,0,36.3,0,53.7,0c32.5,0,32.3,0,30.6-31.5C840.2,508,837.6,505.8,830.9,505.9z M829.7,537.6c-19.8,0-39.7,0.1-59.7-0.3
		c-1.6,0-4.1-3.8-4.4-6c-0.7-4.6-0.2-9.4-0.2-15.2c21.7,0,42.6,0,64.3,0C829.7,523,829.7,529.4,829.7,537.6z"/>
	<path class="st31" d="M1537.7,506.3c-2.7,0.1-7.5,4.2-7.6,6.5c-0.5,41.9-0.4,83.8-0.1,125.7c0,2.4,3.9,6.7,6.1,6.8
		c25.1,0.5,50.2,0.3,75.8,0.3c0-47.6,0-93.3,0-139.6C1586.5,506,1562.1,505.8,1537.7,506.3z M1604,522.1c0.5,35.6,0.5,71.3,0,106.9
		c0,2.6-4.1,7.4-6.5,7.5c-19,0.6-37.9,0.3-57.6,0.3c0-40.8,0-80.7,0-122.1c19.8,0,38.5-0.3,57.1,0.3
		C1599.6,515.2,1604,519.6,1604,522.1z"/>
	<path class="st30" d="M765.6,531.3c0.3,2.3,2.8,6,4.4,6c19.9,0.4,39.9,0.3,59.7,0.3c0-8.2,0-14.6,0-21.5c-21.7,0-42.6,0-64.3,0
		C765.4,521.9,764.9,526.7,765.6,531.3z"/>
	<path class="st32" d="M1540,514.8c0,41.5,0,81.3,0,122.1c19.7,0,38.7,0.3,57.6-0.3c2.3-0.1,6.4-4.9,6.5-7.5
		c0.4-35.6,0.4-71.3,0-106.9c0-2.5-4.5-6.9-7-7C1578.5,514.5,1559.8,514.8,1540,514.8z"/>
</g>
</svg>
